<svg id="visual" viewBox="0 0 900 600" width="900" height="600" xmlns="http://www.w3.org/2000/svg" xmlns:xlink="http://www.w3.org/1999/xlink" version="1.1"><rect x="0" y="0" width="900" height="600" fill="#13203C"></rect><defs><linearGradient id="grad1_0" x1="33.3%" y1="0%" x2="100%" y2="100%"><stop offset="20%" stop-color="#13203c" stop-opacity="1"></stop><stop offset="80%" stop-color="#13203c" stop-opacity="1"></stop></linearGradient></defs><defs><linearGradient id="grad2_0" x1="0%" y1="0%" x2="66.7%" y2="100%"><stop offset="20%" stop-color="#13203c" stop-opacity="1"></stop><stop offset="80%" stop-color="#13203c" stop-opacity="1"></stop></linearGradient></defs><g transform="translate(900, 0)"><path d="M0 486.7C-54.6 462.6 -109.2 438.5 -174.1 420.4C-239.1 402.3 -314.5 390.2 -344.2 344.2C-373.9 298.1 -358 218 -374.2 155C-390.3 92 -438.5 46 -486.7 0L0 0Z" fill="#1D9387"></path></g><g transform="translate(0, 600)"><path d="M0 -486.7C59.9 -472.6 119.7 -458.4 181.4 -437.9C243.1 -417.4 306.6 -390.6 344.2 -344.2C381.8 -297.8 393.5 -231.7 413 -171.1C432.4 -110.4 459.6 -55.2 486.7 0L0 0Z" fill="#1D9387"></path></g></svg>