<svg width="1000" height="600" xmlns="http://www.w3.org/2000/svg"><defs><linearGradient id="a" gradientTransform="rotate(90)"><stop offset="5%" stop-color="#1d9387"/><stop offset="95%" stop-color="#55aea5"/></linearGradient></defs><path fill="#fa9054" d="M0 0h1000v600H0z"/><path d="M0 300c38.194.603 76.389 1.207 115 26 38.611 24.793 77.639 73.776 116 42 38.361-31.776 76.057-144.311 111-150 34.943-5.689 67.135 95.469 106 136 38.865 40.531 84.404 20.435 121-16 36.596-36.435 64.251-89.21 96-83 31.749 6.21 67.593 71.407 101 111s64.379 53.583 110 22c45.621-31.583 105.892-108.738 129-131 23.108-22.262 9.054 10.369 35 43l-40 300H0Z" fill="url(#a)"/></svg>