<svg id="af9bdd18-5b2e-4cd8-8d03-de0ce9008419" data-name="a07ef6d1-5d9b-47b4-b036-d8f6c1cd1729" xmlns="http://www.w3.org/2000/svg" width="865.76" height="682.89" viewBox="0 0 865.76 682.89"><g id="ba2f2ba3-59bc-412f-9d99-758a0b45d261" data-name="b827043c-d474-4ff3-9494-b1ae2aaf1138"><path d="M833.77,510.93c17.4-137.44-67-320.08-154.36-395.49-157.83-136.18-289-109.85-391-61.09S172,266,101.55,339.64-8.92,512.39,97.92,611s193.13,48.52,304.75,42.25,259.83,43,340,.18C798.59,623.57,826.14,571.74,833.77,510.93Z" fill="#cfbb49"/><path d="M833.77,510.93c17.4-137.44-67-320.08-154.36-395.49-157.83-136.18-289-109.85-391-61.09S172,266,101.55,339.64-8.92,512.39,97.92,611s193.13,48.52,304.75,42.25,259.83,43,340,.18C798.59,623.57,826.14,571.74,833.77,510.93Z" fill="#fff" opacity="0.8" style="isolation:isolate"/></g><g id="fa8c49a6-f6c2-40e1-b09f-ba376ac80ebb" data-name="b8ed7055-d612-439c-ba29-9e318ac5a052"><path d="M42.21,534.14C52.17,559.49,70,585.28,97.92,611c106.85,98.63,193.13,48.52,304.75,42.25s259.83,43,340,.18c48.67-26,75.87-68.68,87.18-119.33Z" fill="#cfbb49"/><path d="M42.21,534.14C52.17,559.49,70,585.28,97.92,611c106.85,98.63,193.13,48.52,304.75,42.25s259.83,43,340,.18c48.67-26,75.87-68.68,87.18-119.33Z" fill="#fff" opacity="0.5" style="isolation:isolate"/></g><circle cx="284.16" cy="137.03" r="55.36" opacity="0.1" style="isolation:isolate"/><path d="M247.41,131.2a23.26,23.26,0,0,0,.31-3.53A22.65,22.65,0,0,0,225.12,105a21.48,21.48,0,0,0-3.67.32,25.84,25.84,0,0,0-47.12,6.3,16.78,16.78,0,0,0-21.41,19.57Z" fill="#f0f0f0"/><path d="M299,160.36A12.51,12.51,0,0,1,313.46,146a14.34,14.34,0,0,1,26.19,3.49,9.32,9.32,0,0,1,12.11,8.91,10.36,10.36,0,0,1-.2,2Z" fill="#f0f0f0"/><path d="M115.07,195.46c-7.16-2.7-20.81-5.58-27.33,7.75,0,0,7.48-5.82,20.07-4.45a6.69,6.69,0,0,0-.44,5.82l7.77-4.29h.12c16.82-5,27.16,3,27.16,3C135.88,189.88,122.23,192.76,115.07,195.46Z" fill="#f0f0f0"/><path d="M479.49,564.8c-13.6-115.35-28.15-287.95-72.84-291.63-67.82-5.57-59,170.09-96.65,166.63S269.7,170.45,198.06,172c-67.21,1.42-95.48,349.56-98.72,392.81Z" fill="#e0e0e0"/><path d="M758.29,563.15c-13.6-115.35-28.14-287.95-72.84-291.63-67.82-5.57-59,170.09-96.64,166.63S548.5,168.8,476.87,170.34c-67.21,1.42-95.48,349.56-98.73,392.81Z" fill="#e0e0e0"/><polygon points="671.09 489.3 727.97 562.62 726.16 549.46 675.25 483.28 671.24 482.82 671.09 489.3" fill="#ccc"/><polygon points="685.12 313.94 711.55 371.74 712.99 390.39 684.71 325.62 685.12 313.94" fill="#ccc"/><polygon points="664.26 563.75 695.83 191.91 727.97 562.63 735.3 563.19 700.91 149.78 690.76 150.35 656.36 563.19 664.26 563.75" fill="#2f2e41"/><rect x="652.98" y="475.79" width="84.58" height="7.33" rx="0.85" fill="#cfbb49"/><rect x="660.91" y="390.65" width="68.76" height="7.48" rx="0.85" fill="#cfbb49"/><rect x="668.77" y="306.04" width="54.61" height="7.87" rx="0.85" fill="#cfbb49"/><rect x="675.71" y="222.82" width="39.8" height="7.33" rx="0.85" fill="#cfbb49"/><rect x="687.34" y="112.47" width="3.7" height="21.31" transform="translate(3.3 263.49) rotate(-21.7)" fill="#2f2e41"/><rect x="692.1" y="123.3" width="21.29" height="3.7" transform="translate(317.04 725.77) rotate(-67.39)" fill="#2f2e41"/><rect x="703.24" y="132.5" width="21.29" height="3.7" transform="translate(-5.46 235.47) rotate(-18.66)" fill="#2f2e41"/><rect x="710.82" y="137.92" width="3.7" height="21.29" transform="translate(332.24 769.24) rotate(-70.27)" fill="#2f2e41"/><rect x="678.12" y="124.96" width="3.7" height="21.29" transform="translate(322.77 729.88) rotate(-70.27)" fill="#2f2e41"/><rect x="669.6" y="147" width="21.29" height="3.7" transform="translate(0.88 301.67) rotate(-25.02)" fill="#2f2e41"/><rect x="678.69" y="159.34" width="21.34" height="3.71" transform="translate(254.12 719.55) rotate(-65.22)" fill="#2f2e41"/><rect x="701.37" y="148.67" width="3.7" height="21.29" transform="translate(-13.12 241.5) rotate(-19.31)" fill="#2f2e41"/><g opacity="0.2"><rect x="687.34" y="112.47" width="3.7" height="21.31" transform="translate(3.3 263.49) rotate(-21.7)"/><rect x="692.1" y="123.3" width="21.29" height="3.7" transform="translate(317.04 725.77) rotate(-67.39)"/><rect x="703.24" y="132.5" width="21.29" height="3.7" transform="translate(-5.46 235.47) rotate(-18.66)"/><rect x="710.82" y="137.92" width="3.7" height="21.29" transform="translate(332.24 769.24) rotate(-70.27)"/><rect x="678.12" y="124.96" width="3.7" height="21.29" transform="translate(322.77 729.88) rotate(-70.27)"/><rect x="669.6" y="147" width="21.29" height="3.7" transform="translate(0.88 301.67) rotate(-25.02)"/><rect x="678.69" y="159.34" width="21.34" height="3.71" transform="translate(254.12 719.55) rotate(-65.22)"/><rect x="701.37" y="148.67" width="3.7" height="21.29" transform="translate(-13.12 241.5) rotate(-19.31)"/></g><circle cx="696.38" cy="142.38" r="11.11" fill="#ccc"/><circle cx="696.38" cy="142.38" r="5.09" opacity="0.2" style="isolation:isolate"/><polygon points="710.42 69.22 701.29 117.91 710.42 121.17 737.16 81.61 710.42 69.22" fill="#ccc"/><polygon points="653.51 79.21 681.26 120.26 690.04 116.15 681.24 69.22 653.51 79.21" fill="#ccc"/><polygon points="623.77 127.43 672.41 136.88 675.73 127.77 636.34 100.77 623.77 127.43" fill="#ccc"/><polygon points="634 183.44 675.37 156.17 671.37 147.34 624.34 155.6 634 183.44" fill="#ccc"/><polygon points="758.18 99.97 716.8 127.21 720.79 136.05 767.83 127.82 758.18 99.97" fill="#ccc"/><polygon points="769.51 155.65 720.61 147.68 717.57 156.88 757.76 182.68 769.51 155.65" fill="#ccc"/><polygon points="738.05 204 709.23 163.71 700.55 168.04 710.6 214.72 738.05 204" fill="#ccc"/><polygon points="680.93 215.23 690.73 166.67 681.65 163.28 654.36 202.47 680.93 215.23" fill="#ccc"/><rect x="693.99" y="574.64" width="65.79" height="0.5" fill="#ebebeb"/><rect x="506.79" y="580.04" width="17.26" height="0.5" fill="#ebebeb"/><rect x="653.89" y="556.21" width="38.12" height="0.5" fill="#ebebeb"/><rect x="159.22" y="565.64" width="62.86" height="0.36" fill="#ebebeb"/><rect x="235.04" y="565.64" width="9.21" height="0.36" fill="#ebebeb"/><rect x="274.21" y="571.78" width="136.34" height="0.36" fill="#ebebeb"/><path d="M498.11,527.49a70.43,70.43,0,0,0-16.71,22.66c-6.47-27.65-25.52-47.43-25.52-47.43a137.6,137.6,0,0,1,13.76,51.48c-4-11.8-12.17-15.15-12.17-15.15,6.12,11.74,3.87,27.41,3.87,27.41h28.21A83.73,83.73,0,0,1,498.11,527.49Z" fill="#f0f0f0"/><path d="M569.72,619a104.53,104.53,0,0,1,10.43-39,86.05,86.05,0,0,0-19.33,35.93,54,54,0,0,0-12.65-17.18,63.44,63.44,0,0,1,6.47,29.5H576s-1.69-11.92,2.94-20.76C578.94,607.5,572.68,610,569.72,619Z" fill="#f0f0f0"/><path d="M175.72,569a72.17,72.17,0,0,0-7.27-27,59.47,59.47,0,0,1,13.38,24.89A37.14,37.14,0,0,1,190.57,555a44.12,44.12,0,0,0-4.5,20.38h-14.7s1.18-8.21-2-14.38A12.84,12.84,0,0,1,175.72,569Z" fill="#f0f0f0"/><path d="M290.51,160.36a28.42,28.42,0,0,0,.42-4.7,29.93,29.93,0,0,0-29.8-30.06h0a31.37,31.37,0,0,0-5.12.4,34.29,34.29,0,0,0-62.41,8.36,22.32,22.32,0,0,0-28.9,21.28,23.17,23.17,0,0,0,.52,4.7Z" fill="#f0f0f0"/><polygon points="464.73 142.53 464.73 299.38 380.97 299.38 380.97 142.7 464.73 142.53" fill="#2f2e41"/><path d="M464.73,137.32a41.88,41.88,0,0,0-41.88-41.88h0A41.88,41.88,0,0,0,381,137.32Z" fill="#ccc"/><rect x="377.12" y="137.17" width="91.47" height="5.86" rx="0.91" fill="#cfbb49"/><rect x="377.12" y="170.4" width="91.47" height="5.86" rx="0.91" fill="#cfbb49"/><rect x="377.12" y="204.02" width="91.47" height="5.86" rx="0.91" fill="#cfbb49"/><rect x="377.12" y="236.85" width="91.47" height="5.86" rx="0.91" fill="#cfbb49"/><rect x="377.12" y="269.69" width="91.47" height="5.86" rx="0.91" fill="#cfbb49"/><polygon points="559.33 142.14 559.33 298.99 475.56 298.99 475.56 142.31 559.33 142.14" fill="#2f2e41"/><path d="M559.33,136.93a41.88,41.88,0,0,0-41.88-41.88h0a41.89,41.89,0,0,0-41.89,41.88Z" fill="#ccc"/><rect x="471.71" y="136.78" width="91.47" height="5.86" rx="0.91" fill="#cfbb49"/><rect x="471.71" y="170.01" width="91.47" height="5.86" rx="0.91" fill="#cfbb49"/><rect x="471.71" y="203.63" width="91.47" height="5.86" rx="0.91" fill="#cfbb49"/><rect x="471.71" y="236.46" width="91.47" height="5.86" rx="0.91" fill="#cfbb49"/><rect x="471.71" y="269.3" width="91.47" height="5.86" rx="0.91" fill="#cfbb49"/><rect x="242.6" y="363.75" width="232.4" height="198.01" fill="#bfbfbf"/><polygon points="663.27 363.75 633.15 364.15 553.48 313.81 572.5 300.73 663.27 363.75" fill="#cfbb49"/><polygon points="663.27 363.75 633.15 364.15 553.48 313.81 572.5 300.73 663.27 363.75" fill="#fff" opacity="0.2" style="isolation:isolate"/><path d="M475,561.76v-198h4l84.83-57.08L636,356.23V561Z" fill="#ccc"/><rect x="501.16" y="376.22" width="103.05" height="183.63" fill="#2f2e41"/><rect x="604.21" y="375.36" width="6.01" height="185.71" fill="#b2b2b2"/><rect x="384.87" y="376.42" width="54.16" height="20.09" fill="#cfbb49" opacity="0.25" style="isolation:isolate"/><rect x="384.87" y="376.42" width="5.82" height="19.8" fill="#b2b2b2"/><rect x="297.52" y="376.42" width="54.16" height="20.09" fill="#cfbb49" opacity="0.25" style="isolation:isolate"/><rect x="401.18" y="447.16" width="4.27" height="14.51" fill="#b2b2b2"/><path d="M452.86,462l.22-14.51a14.94,14.94,0,0,1,4.32-10.55,13.36,13.36,0,0,1,6.85-3.59,2.78,2.78,0,0,1,3.19,2.29,2.7,2.7,0,0,1,0,.49h0a2.8,2.8,0,0,1-1.82,2.63c-2.55,1-6.8,3.23-6,7.26l-.81,15.43Z" fill="#2f2e41"/><rect x="450.15" y="457.9" width="11.37" height="45.21" fill="#2f2e41"/><rect x="450.15" y="457.9" width="11.37" height="45.21" fill="#fff" opacity="0.2" style="isolation:isolate"/><rect x="143.99" y="583.99" width="8.11" height="22.11" fill="#2f2e41"/><rect x="189.34" y="583.99" width="7.64" height="22.58" fill="#2f2e41"/><rect x="232.85" y="583.99" width="7.64" height="22.58" fill="#2f2e41"/><g opacity="0.2"><rect x="143.99" y="583.99" width="8.11" height="22.11" fill="#fff"/><rect x="189.34" y="583.99" width="7.64" height="22.58" fill="#fff"/><rect x="232.85" y="583.99" width="7.64" height="22.58" fill="#fff"/></g><path d="M165.73,577.35l113.65-30.89a3.38,3.38,0,0,1,4.15,2.37,3.42,3.42,0,0,1,.12.9V596a3.49,3.49,0,0,1-3.48,3.5h0a3.5,3.5,0,0,1-3.5-3.5V555.24l-85.49,22.48Z" fill="#2f2e41"/><path d="M533.93,541.26s3,28.89-.33,48.15H402.08L301.41,529s26.95-32.26,70.12-17.64c0,0,28.56,10,38.53,39.52l52.47-1s-13.29,9.63-13.95,36.86h5.65s.33-30.88,26.56-43.5c0,0,19.6-11.29,44.84-.33l2.11-4a1.11,1.11,0,0,1,1.5-.45l0,0Z" fill="#cfbb49"/><path d="M533.93,541.26s3,28.89-.33,48.15H402.08L301.41,529s26.95-32.26,70.12-17.64c0,0,28.56,10,38.53,39.52l52.47-1s-13.29,9.63-13.95,36.86h5.65s.33-30.88,26.56-43.5c0,0,19.6-11.29,44.84-.33l2.11-4a1.11,1.11,0,0,1,1.5-.45l0,0Z" opacity="0.2" style="isolation:isolate"/><path d="M410.06,550.89c-10.75-30.11-38.53-39.52-38.53-39.52C327.21,497.15,301.41,529,301.41,529c-3.87,3.42-3-1-3-1s21.09-33.65,62.27-29.67c0,0,49.31,5.54,53.83,52.52Z" fill="#cfbb49"/><path d="M462.2,549.88s-12.9,7.93-13.62,36.87h5.65s.08-29.32,26.12-43.13c0,0,18-11.61,45.28-.7l2.11-4a1.13,1.13,0,0,1,1.54-.43h0l4.65,2.74s2.14-14.94-9.16-20.81-22.91-18.38-84-21c0,0,.37,29.8-2,50.93Z" fill="#cfbb49"/><path d="M514,532.44s-36-11.43-72.57-11.1a247.17,247.17,0,0,1-2.61,29l23.42-.47S478.75,526.8,514,532.44Z" fill="#fff" opacity="0.2" style="isolation:isolate"/><path d="M338.33,499.88,347,448.63l83,.34s18,44.7,8.8,101.38l-24.28.46s-1.69-34.83-39.71-48.93C374.79,501.88,357.48,495,338.33,499.88Z" fill="#2f2e41"/><path d="M381.85,457.72l-1.74,34.91a3.75,3.75,0,0,0,2.31,3.66c4.46,1.83,13.93,5.92,19.14,9.64,0,0,7,4.32,12.29.67l15.94-6.31s-4.65-42.85-18.93-44.84H384.24A2.39,2.39,0,0,0,381.85,457.72Z" fill="#cfbb49" opacity="0.14" style="isolation:isolate"/><path d="M347,448.63s-5.28,1.16-4-6.22c0,0-1.53-3.56,10.93-3.56,0,0,61.8-2.29,76.05,4.32,0,0,4.95,3.45.06,5.8Z" fill="#cfbb49"/><path d="M428.83,584.72H401.51V554h30.67a4.4,4.4,0,0,1,4.4,4.4,4.89,4.89,0,0,1-.05.66l-3.35,22A4.39,4.39,0,0,1,428.83,584.72Z" fill="#2f2e41"/><path d="M428.83,584.72H401.51V554h30.67a4.4,4.4,0,0,1,4.4,4.4,4.89,4.89,0,0,1-.05.66l-3.35,22A4.39,4.39,0,0,1,428.83,584.72Z" fill="#fff" opacity="0.2" style="isolation:isolate"/><path d="M535.79,561.22s.28-6.17,4.77-5.61h16.81a3.93,3.93,0,0,1,3.93,3.93V581.4a3.93,3.93,0,0,1-3.93,3.92H544.19A39.46,39.46,0,0,0,535.79,561.22Z" fill="#cfbb49"/><path d="M72.9,577.46H303.32v11.41H72.9A1.84,1.84,0,0,1,71.06,587V579.3A1.84,1.84,0,0,1,72.9,577.46Z" fill="#2f2e41"/><path d="M72.9,577.46H303.32v11.41H72.9A1.84,1.84,0,0,1,71.06,587V579.3A1.84,1.84,0,0,1,72.9,577.46Z" opacity="0.2" style="isolation:isolate"/><path d="M274,564.83h29.34v12.63H274a2,2,0,0,1-2-2V566.9a2,2,0,0,1,1.93-2.07Z" fill="#2f2e41"/><path d="M274,564.83h29.34v12.63H274a2,2,0,0,1-2-2V566.9a2,2,0,0,1,1.93-2.07Z" fill="#fff" opacity="0.2" style="isolation:isolate"/><path d="M86.77,561.16h6.07a1.45,1.45,0,0,1,1.45,1.45h0v29.93h-9V562.61a1.45,1.45,0,0,1,1.45-1.45Z" fill="#2f2e41"/><path d="M132.94,606.46l23.58-6.26s5.53-3,4,7.74a23.21,23.21,0,0,0,10.32,18.42s4.17,7.77-12.44,1.46C158.45,627.82,121,612,132.94,606.46Z" fill="#2f2e41"/><path d="M174.73,606.9l24.24-7s6.31-3.32,5,5.65c0,0,2.66,16.57,11.62,22.06a2,2,0,0,1,.65,2.75,1.93,1.93,0,0,1-.28.36c-1.38,1.37-4.17,2.39-9.66-.26C206.28,630.48,167.75,614.2,174.73,606.9Z" fill="#2f2e41"/><path d="M218.9,606.9l24.24-7s6.31-3.32,5,5.65c0,0,2.67,16.57,11.62,22.06a2,2,0,0,1,.66,2.75,1.93,1.93,0,0,1-.28.36c-1.39,1.37-4.18,2.39-9.67-.26C250.45,630.48,211.92,614.2,218.9,606.9Z" fill="#2f2e41"/><circle cx="349.92" cy="570.53" r="56.29" fill="#2f2e41"/><circle cx="349.92" cy="571.19" r="33.71" opacity="0.2" style="isolation:isolate"/><circle cx="349.92" cy="571.19" r="11.79" fill="#ebebeb"/><circle cx="349.58" cy="548.94" r="2.82" fill="#ebebeb"/><circle cx="372.5" cy="571.36" r="2.82" fill="#ebebeb"/><circle cx="349.75" cy="593.78" r="2.82" fill="#ebebeb"/><circle cx="327.83" cy="571.19" r="2.82" fill="#ebebeb"/><circle cx="502.61" cy="585.95" r="41.59" transform="translate(-267.12 527.02) rotate(-45)" fill="#2f2e41"/><circle cx="503.21" cy="586.26" r="23.14" opacity="0.2" style="isolation:isolate"/><circle cx="503.21" cy="586.26" r="10.13" transform="translate(-156.09 989.06) rotate(-80.78)" fill="#ebebeb"/><circle cx="90.01" cy="608.23" r="18.95" fill="#2f2e41"/><circle cx="90.42" cy="608.63" r="11.21" opacity="0.2" style="isolation:isolate"/><circle cx="90.62" cy="608.84" r="4.07" fill="#ebebeb"/><path d="M415.84,533.5c.85,2.58,1,4.67,1.41,6.14a7.6,7.6,0,0,0,6,5.16,13.44,13.44,0,0,0,4.43.08,6.87,6.87,0,0,0,5.56-5.76c5.32-34.12-4.77-70.38-4.77-70.38-4-20.26-9-19.6-9-19.6l-41.18-.33L375,497A53.87,53.87,0,0,1,415.84,533.5Z" fill="#cfbb49" opacity="0.25" style="isolation:isolate"/><path d="M353.23,492.94l4.79-33.2a7.44,7.44,0,0,1,7.6-5.79l6.86-.36-2.31,41S360,494.52,353.23,492.94Z" fill="#cfbb49" opacity="0.25" style="isolation:isolate"/><path d="M372.5,448.9l-2.27,45.63s-25.46.22-24.58-7.08L351.19,456s0-5,6.89-7.22Z" fill="#cfbb49" opacity="0.25" style="isolation:isolate"/><path d="M229.5,357.5,326.36,292l245.75.39L475.4,357.8l-245.68.4a.38.38,0,0,1-.4-.36A.4.4,0,0,1,229.5,357.5Z" fill="#cfbb49"/><polygon points="232.03 363.35 229.72 358.2 475.4 357.8 478.96 363.75 232.03 363.35" fill="#cfbb49"/><polygon points="232.03 363.35 229.72 358.2 475.4 357.8 478.96 363.75 232.03 363.35" opacity="0.2" style="isolation:isolate"/><polygon points="478.96 363.75 572.5 300.73 663.27 363.75 668.03 357.41 572.11 292.4 475.4 357.8 478.96 363.75" fill="#cfbb49"/><polygon points="478.96 363.75 572.5 300.73 663.27 363.75 668.03 357.41 572.11 292.4 475.4 357.8 478.96 363.75" opacity="0.2" style="isolation:isolate"/><g id="a8bce5bd-96b2-4538-8976-903cf74a971d" data-name="afa896c8-ff31-4ee5-8cd5-087a50bb8296"><path d="M634.46,590.59c-.1.33,0,14.19,0,14.19s-10.84,5.69-9.19,5.37,8-2.8,8-2.8-3.83,3.49-2.42,2.81a34.08,34.08,0,0,0,4.29-3.06s10.32.33,8.19-.45a46.21,46.21,0,0,0-6.7-1.45L637.4,592Z" fill="#cfbb49"/><path d="M651.34,590.59c-.11.33,0,14.19,0,14.19s-10.84,5.69-9.19,5.37,8-2.8,8-2.8-3.83,3.49-2.43,2.81A34.08,34.08,0,0,0,652,607.1s10.32.33,8.19-.45a46.21,46.21,0,0,0-6.7-1.45l.77-13.19Z" fill="#cfbb49"/><g opacity="0.2"><path d="M634.46,590.59c-.1.33,0,14.19,0,14.19s-10.84,5.69-9.19,5.37,8-2.8,8-2.8-3.83,3.49-2.42,2.81a34.08,34.08,0,0,0,4.29-3.06s10.32.33,8.19-.45a46.21,46.21,0,0,0-6.7-1.45L637.4,592Z" fill="#fff"/><path d="M651.34,590.59c-.11.33,0,14.19,0,14.19s-10.84,5.69-9.19,5.37,8-2.8,8-2.8-3.83,3.49-2.43,2.81A34.08,34.08,0,0,0,652,607.1s10.32.33,8.19-.45a46.21,46.21,0,0,0-6.7-1.45l.77-13.19Z" fill="#fff"/></g><path d="M587.41,580.62a5.23,5.23,0,0,0-2.18.35,2.17,2.17,0,0,1-2.12.16c-1.24-.76-.38-3.06-1.46-4-.23-.21-.53-.34-.77-.54a.72.72,0,0,1-.23-.84c.19-.32.68-.3.94-.56.42-.42,0-1.11-.36-1.54s-.77-1.16-.3-1.53c.3-.25.76-.13,1.14-.24.66-.2.89-1,1-1.7s.39-1.54,1.07-1.66c1-.2,1.93,1.15,2.75.61.6-.38.35-1.31.64-2a1.58,1.58,0,0,1,2.18-.49,1.68,1.68,0,0,1,.29.24,2.75,2.75,0,0,1,.43,2.74,12.93,12.93,0,0,1-1.37,2.57,13.47,13.47,0,0,0-1.67,8.43" fill="#cfbb49"/><path d="M589.34,570.53c.12-.48,11.91-9.6,13.74-12.26s6.89-7.17,10.2-9.36,54.33-22.37,54.33-22.37,18.61-8.26,19.82-5-1.21,9.47-2.19,9.59,2.19,5.23-1.94,8.63c0,0,1.94.37-1.58,4.74s-11.19,10.09-11.19,10.09,1.7,13.86-2.67,20.31S655.7,586,655.7,586l-1.35,6.08-4-.49-7.9-3.06-3.06,1.71-.87,3.06s-4.22-.36-5-1.09-4.21-5.83-4.21-5.83L622.52,585s-15.92,1-18.59-.77-4.87-2.92-4.87-2.92l-5.47,1.59s-5.81,1.07-6.32-4.26S589.34,570.53,589.34,570.53Z" fill="#fafafa"/><path d="M589.34,570.53l-.18.23a6.62,6.62,0,0,0-.46.71,10.12,10.12,0,0,0-1.17,3.1,13.19,13.19,0,0,0-.26,2.43,9.25,9.25,0,0,0,.34,2.91,3.91,3.91,0,0,0,2.16,2.49,6.79,6.79,0,0,0,3.83.43h0l5.46-1.59h.09l4.59,2.73a6.48,6.48,0,0,0,2.68.81c1,.14,2,.21,3,.26,4.07.18,8.49,0,13.18-.21h0l6.81,1.34h.07v.06c1.08,1.61,2.21,3.28,3.44,4.92.16.2.32.41.49.6l.24.28.3.17a6.88,6.88,0,0,0,1.47.43,31.23,31.23,0,0,0,3.16.44l-.18.12c.26-.93.56-2,.87-3.06v-.07h.06l3.06-1.7.07-.05h.08l7.9,3.06h0l4,.48-.2.14c.41-1.88.88-4,1.34-6.07v-.08h.07a49.24,49.24,0,0,0,7-5.37,27.74,27.74,0,0,0,5.81-7,20.25,20.25,0,0,0,1.45-4.42,35.65,35.65,0,0,0,.62-4.72,55.15,55.15,0,0,0-.2-9.7v-.11l.09-.07a95.94,95.94,0,0,0,8.77-7.46,29.58,29.58,0,0,0,3.06-3.46,10.8,10.8,0,0,0,1.15-1.9,3.14,3.14,0,0,0,.26-1,.6.6,0,0,0-.37-.66l-.4-.1.31-.25a5.69,5.69,0,0,0,1.86-2.71,7.66,7.66,0,0,0,.15-3.3c-.07-.55-.2-1.1-.29-1.67a3.53,3.53,0,0,1,0-.46,1.31,1.31,0,0,1,0-.28.4.4,0,0,1,.3-.25c.15,0,.34-.26.49-.47a12.25,12.25,0,0,0,1.29-3,14.22,14.22,0,0,0,.58-3.24,8.78,8.78,0,0,0-.06-1.62c-.09-.51-.19-1.11-.55-1.34a2.71,2.71,0,0,0-1.48-.28,10.7,10.7,0,0,0-1.6.15c-1.07.19-2.12.45-3.15.73a107.43,107.43,0,0,0-11.91,4.37c-3.83,1.59-7.66,3.06-11.3,4.52-14.69,5.86-27.86,11.11-38.78,15.77-2.72,1.19-5.36,2.19-7.41,4a57,57,0,0,0-5.65,5,23.51,23.51,0,0,0-2.25,2.53,15.68,15.68,0,0,1-2.11,2.35c-1.47,1.39-2.87,2.58-4.12,3.65-2.53,2.13-4.52,3.73-5.86,4.84L589.79,570a3.89,3.89,0,0,0-.36.34l-.11.12a13.09,13.09,0,0,1,1.93-1.79l5.8-4.9c1.25-1.08,2.65-2.29,4.1-3.66a16.82,16.82,0,0,0,2.08-2.3,23.82,23.82,0,0,1,2.25-2.56,57.15,57.15,0,0,1,5.66-5c.53-.4,1.08-.82,1.64-1.21l.43-.29.46-.25a9.32,9.32,0,0,1,1-.49c1.28-.59,2.6-1.19,4-1.77,10.91-4.7,24.07-10,38.76-15.86,3.66-1.48,7.46-2.94,11.28-4.53a107,107,0,0,1,12-4.39,31.52,31.52,0,0,1,3.19-.77,15.29,15.29,0,0,1,1.66-.16,3.19,3.19,0,0,1,1.71.36,1.32,1.32,0,0,1,.52.76,6,6,0,0,1,.2.84,9.64,9.64,0,0,1,.06,1.7,14.92,14.92,0,0,1-.59,3.32,12,12,0,0,1-1.35,3.15,1.39,1.39,0,0,1-.77.64v.15a2.41,2.41,0,0,0,0,.38c.09.55.22,1.11.29,1.68a7.86,7.86,0,0,1-.16,3.48,6,6,0,0,1-2,2.89l-.08-.35a1,1,0,0,1,.69,1.06,3.21,3.21,0,0,1-.3,1.14,10.84,10.84,0,0,1-1.18,2,29.23,29.23,0,0,1-3.07,3.51,95.44,95.44,0,0,1-8.82,7.5l.09-.19a58,58,0,0,1,.2,9.77,36.59,36.59,0,0,1-.64,4.78,21.17,21.17,0,0,1-1.48,4.52,28.47,28.47,0,0,1-5.91,7.11,50.06,50.06,0,0,1-7.1,5.36L656,586c-.47,2.1-.93,4.19-1.35,6.07v.16h-.17l-4-.48h0l-7.9-3.07h.14l-3.06,1.71.08-.1-.87,3.06v.14h-.14a28.47,28.47,0,0,1-3.19-.45,8.27,8.27,0,0,1-1.54-.46,1.69,1.69,0,0,1-.36-.23l-.29-.3-.49-.62c-1.24-1.66-2.36-3.34-3.45-5l.1.07-6.81-1.35h0c-4.7.24-9.13.35-13.21.17-1-.06-2-.13-3-.28a6.74,6.74,0,0,1-2.76-.85L599,581.44h.09L593.63,583h0a7,7,0,0,1-3.91-.48,4.16,4.16,0,0,1-2.23-2.59,9.5,9.5,0,0,1-.32-3,13.53,13.53,0,0,1,.28-2.45,10.61,10.61,0,0,1,1.22-3.12A4.87,4.87,0,0,1,589.34,570.53Z" fill="#2f2e41"/><path d="M587.27,578.67a9.42,9.42,0,0,0-.77,7.29c.13.3.36.64.68.59s.37-.27.48-.48l1.91-3.84Z" fill="#cfbb49"/><path d="M587.27,578.67a9.42,9.42,0,0,0-.77,7.29c.13.3.36.64.68.59s.37-.27.48-.48l1.91-3.84Z" fill="#fff" opacity="0.2" style="isolation:isolate"/><path d="M589.91,577.12a.89.89,0,1,1-1.7-.23,1,1,0,0,1,.7-.7h0a1,1,0,0,1,1,1Z" fill="#2f2e41"/><path d="M588.54,584.36a3.36,3.36,0,0,0,.42,1.81,1.15,1.15,0,0,0,1.57.42l0,0h0a2.72,2.72,0,0,0,.47-.69.86.86,0,0,1,.66-.46c.3,0,.52.28.77.43a1.27,1.27,0,0,0,1.44-.17,1.63,1.63,0,0,0,.49-1.4,4.12,4.12,0,0,1-.19-1.35c.08-.39.4-.71.45-1.11a1.35,1.35,0,0,0-1-1.31,3.32,3.32,0,0,0-3.31.93,9.56,9.56,0,0,0-1.91,3.06" fill="#cfbb49"/><path d="M587.25,580.53a1.89,1.89,0,0,1,0,1,1.92,1.92,0,0,1-.35.89,5.8,5.8,0,0,1,.2-.92A5.29,5.29,0,0,1,587.25,580.53Z" fill="#2f2e41"/><path d="M630.92,560.68a40.91,40.91,0,0,0,13.43,5.87,16.43,16.43,0,0,0,8.77.15c2.81-.91,5.32-3.32,5.53-6.27a9.8,9.8,0,0,0,4.72.15c1.52-.47,2.87-2,2.56-3.53-.1-.53-.38-1.09-.17-1.58s.77-.68,1.23-.87a8.88,8.88,0,0,0,5.18-5.67c.13-.44.19-1-.18-1.29a1.27,1.27,0,0,0-1.17,0c-4.32,1.32-9,3.56-13.56,2.82l2.11,2.06c-4.08,1.67-8.38,1.67-12.75,1.19a9.55,9.55,0,0,1,2.3,2.36,3.48,3.48,0,0,1,.08,3.27,4,4,0,0,1-2.64,1.69,24.46,24.46,0,0,1-14.42-.49" fill="#e0e0e0"/><path d="M671.61,545.94s-.26.29-.8.8a15.48,15.48,0,0,1-2.59,1.89,15.85,15.85,0,0,1-4.6,1.8,15.63,15.63,0,0,1-6.39.1l.06-.12,2.12,2.07.08.08h-.1A19.67,19.67,0,0,1,648.6,554a21.47,21.47,0,0,1-2.38-.52l.07-.14a14,14,0,0,1,2.12,1.87,4.41,4.41,0,0,1,1.12,2.5,2.77,2.77,0,0,1-.93,2.42,5.45,5.45,0,0,1-2.3,1,28,28,0,0,1-8.61.59,27.39,27.39,0,0,1-5.68-1.08c-1.29-.41-2-.71-2-.71l.51.17c.34.12.84.28,1.49.48a28.28,28.28,0,0,0,14.24.41,5.45,5.45,0,0,0,2.25-1,2.6,2.6,0,0,0,.88-2.3,4.33,4.33,0,0,0-1.08-2.41,13.19,13.19,0,0,0-2.1-1.85l-.33-.25.4.11a23.59,23.59,0,0,0,2.36.51,19.6,19.6,0,0,0,10.72-1.4v.12l-2.11-2.08-.16-.16h.23a15.52,15.52,0,0,0,6.33-.08,15.76,15.76,0,0,0,4.6-1.76,16.35,16.35,0,0,0,2.6-1.85c.29-.24.48-.45.62-.57S671.61,545.94,671.61,545.94Z" fill="#2f2e41"/><path d="M618.53,578.76a2,2,0,0,1-.35.1,8.43,8.43,0,0,1-1,.2,13.87,13.87,0,0,1-6.52-.53,8,8,0,0,1-.92-.36,1.26,1.26,0,0,1-.33-.16s.49.17,1.29.41a15.73,15.73,0,0,0,6.47.54C618,578.88,618.52,578.73,618.53,578.76Z" fill="#2f2e41"/><path d="M621.66,577.57a1.58,1.58,0,0,1-.37.11,8.45,8.45,0,0,1-1,.21,15.59,15.59,0,0,1-3.48.15,16.08,16.08,0,0,1-3.43-.64c-.43-.14-.76-.25-1-.35a1.49,1.49,0,0,1-.36-.17,2.38,2.38,0,0,1,.38.11c.23.08.57.18,1,.3a17.1,17.1,0,0,0,6.9.49l1-.16A2.23,2.23,0,0,1,621.66,577.57Z" fill="#2f2e41"/><path d="M631,576.2a4.3,4.3,0,0,1-1,.07,19.4,19.4,0,0,1-4.56-.53,4.11,4.11,0,0,1-.9-.29,9.32,9.32,0,0,1,.92.17c.58.12,1.38.26,2.26.36s1.69.15,2.29.17A8.47,8.47,0,0,1,631,576.2Z" fill="#2f2e41"/><path d="M635.21,575.15a1.11,1.11,0,0,1-.26.07c-.23,0-.46.08-.69.1a10.17,10.17,0,0,1-2.34,0,11,11,0,0,1-2.26-.57,5.3,5.3,0,0,1-.65-.28.76.76,0,0,1-.23-.13c.31.09.61.19.91.3a12.1,12.1,0,0,0,4.55.6A8,8,0,0,1,635.21,575.15Z" fill="#2f2e41"/></g><path d="M774.92,563.19a3.58,3.58,0,0,0-.89-2c-.46-.48-1.08-.78-1.55-1.25a3.07,3.07,0,0,1-.86-1.65,2.18,2.18,0,0,0-.24-.94c-.18-.26-.62-.39-.82-.13a1,1,0,0,0-.12.52.43.43,0,0,1-.27.42c-.28-.61-.57-1.22-.86-1.83a1.39,1.39,0,0,0-.5-.69c-.25-.15-.64-.09-.72.19a1.06,1.06,0,0,0,0,.56c0,.19,0,.44-.21.46s-.34-.25-.4-.47a2.64,2.64,0,0,0-1.14-1.52.52.52,0,0,0-.48-.09c-.23.11-.21.44-.13.67s.19.52,0,.73a.57.57,0,0,1-.49.19l-.54-.13a1.67,1.67,0,0,0-1.44,2.89,4.36,4.36,0,0,0,2.17.64,8.87,8.87,0,0,1,4.2,2,13.93,13.93,0,0,1,3,3.62l2.11-.06A7.26,7.26,0,0,0,774.92,563.19Z" fill="#cfbb49"/><g opacity="0.3"><path d="M763.75,559.57a1.3,1.3,0,0,1,1.44-1.15,1.36,1.36,0,0,1,.47.15l.5.32a.48.48,0,0,0,.56-.07c.12-.15.09-.38.17-.54a.56.56,0,0,1,.69-.23,1.07,1.07,0,0,1,.56.55c.13.23.23.48.38.73.64.9,2,1,2.79,1.72s.85,2.17,1.68,3c.15.14.34.3.29.5s-.35.28-.57.23a2.15,2.15,0,0,1-1.21-.81c-.31-.38-.55-.82-.83-1.22a7.27,7.27,0,0,0-7-3"/></g><path d="M685.32,575.68s3.2.08,8.68,3.62,9.65,5,11.57,4.67,9.19-5.59,13.54-4.15c3.61,1.18,9.28,2.7,11.14,3.19a3.68,3.68,0,0,0,1.24.1l12.5-1.2a3.55,3.55,0,0,0,2.85-2c1.7-3.56,5.59-11.41,8.17-14.12,3.38-3.53,7.09-6.43,10.62-6.12s7.09,4.19,6.93,6.93c-.09,1.51-1.49,2.94-2.74,3.93a3.53,3.53,0,0,0-1.15,3.79c1.66,5.42,5.28,18.26,3.89,23-1.77,6.12-8.68,15.64-11.22,17.09s-11.81,4.5-15.68,5.3-7.29,2-12.11,2c-3.93,0-17.88-2.1-21.58-5.33-3.94-3.45-4.46-6.36-5.12-6.93a1.37,1.37,0,0,0-.23-.19c-.94-.69-8.91-6.55-11.27-9.94a3.49,3.49,0,0,0-1.79-1.42c-1.92-.68-5.35-2.17-5.18-4.11h0a3.63,3.63,0,0,0-1-2.5,6.58,6.58,0,0,1-1.85-3.19,3.83,3.83,0,0,1,0-1.35A3.25,3.25,0,0,0,685,584c-1.28-1.6-2.83-4-2.37-5.79C683.2,575.41,685.32,575.68,685.32,575.68Z" fill="#fafafa"/><path d="M685.32,575.68A2.44,2.44,0,0,0,684,576a3,3,0,0,0-1.11,1.3,3.42,3.42,0,0,0-.3,2.31,8.9,8.9,0,0,0,1.23,2.74c.31.47.65,1,1,1.45a3.14,3.14,0,0,1,.78,1.76,4.18,4.18,0,0,1,0,1,3.06,3.06,0,0,0-.05,1,5.14,5.14,0,0,0,.73,2,9.71,9.71,0,0,0,1.44,1.81,3.71,3.71,0,0,1,.84,2.35h0a2,2,0,0,0,.25,1,3.81,3.81,0,0,0,.72.83,8.79,8.79,0,0,0,2,1.24,19.87,19.87,0,0,0,2.24.92,4.15,4.15,0,0,1,1.92,1.62,27.92,27.92,0,0,0,3.71,3.82c1.38,1.21,2.86,2.42,4.41,3.61.77.6,1.57,1.21,2.38,1.81l.6.45a1.62,1.62,0,0,1,.55.61c.26.46.47.92.73,1.38a17.11,17.11,0,0,0,3.9,4.93,9.51,9.51,0,0,0,2.79,1.66,28.78,28.78,0,0,0,3.14,1.16,63.27,63.27,0,0,0,6.77,1.58c2.33.42,4.73.78,7.17,1a28,28,0,0,0,7.42-.46c2.48-.47,5-1.14,7.54-1.69a74.05,74.05,0,0,0,7.61-2.29c1.28-.43,2.55-.89,3.82-1.38.62-.24,1.25-.5,1.88-.77a8.43,8.43,0,0,0,1.75-1,33.92,33.92,0,0,0,5.3-6.35,50.48,50.48,0,0,0,4.2-7.36c.3-.64.55-1.31.8-2,.1-.34.23-.68.31-1a8.43,8.43,0,0,0,.2-1,19.33,19.33,0,0,0-.09-4.3,87.47,87.47,0,0,0-2.77-13.2c-.29-1.07-.6-2.13-.92-3.19-.14-.53-.34-1-.45-1.61a4,4,0,0,1,.13-1.71,3.8,3.8,0,0,1,.88-1.45c.43-.41.85-.72,1.23-1.08a5.76,5.76,0,0,0,1.7-2.58,4.29,4.29,0,0,0-.66-2.94,9.1,9.1,0,0,0-4.66-3.92,6,6,0,0,0-3-.22,12.5,12.5,0,0,0-5.35,2.72,28.22,28.22,0,0,0-2.25,2,21.6,21.6,0,0,0-2,2.17,40.14,40.14,0,0,0-3.15,4.91c-.94,1.67-1.82,3.36-2.67,5.06l-1.23,2.51a11.23,11.23,0,0,1-.65,1.24,3.67,3.67,0,0,1-2.33,1.52c-.47.09-.9.1-1.36.15l-2.64.25-5.17.5-2.51.23-1.24.12a3.62,3.62,0,0,1-1.27-.12c-3.16-.84-6.18-1.67-9-2.54L719,580a5.9,5.9,0,0,0-2.09-.19,13.82,13.82,0,0,0-4,1c-1.25.49-2.43,1.06-3.57,1.63A34.9,34.9,0,0,1,706,584a4,4,0,0,1-1.78.1,12.16,12.16,0,0,1-1.67-.37,21.33,21.33,0,0,1-3-1.15,41.27,41.27,0,0,1-4.88-2.79,30.61,30.61,0,0,0-6.81-3.54,14.52,14.52,0,0,0-1.93-.53c-.22,0-.45-.08-.67-.1a3.82,3.82,0,0,1,.68.07,11.73,11.73,0,0,1,1.94.49,29.63,29.63,0,0,1,6.87,3.49,45.15,45.15,0,0,0,4.88,2.66,23,23,0,0,0,3,1.12,11.28,11.28,0,0,0,1.63.36,3.67,3.67,0,0,0,1.68-.11,31.16,31.16,0,0,0,3.31-1.6,32.68,32.68,0,0,1,3.62-1.65,14.59,14.59,0,0,1,4-1,5.88,5.88,0,0,1,2.17.2l2.11.65c2.89.87,5.89,1.69,9,2.52a6.51,6.51,0,0,0,2.41,0l2.51-.24,5.16-.5,2.65-.26a8.08,8.08,0,0,0,1.32-.15,3.22,3.22,0,0,0,1.2-.48,3.5,3.5,0,0,0,.93-.91,11.36,11.36,0,0,0,.62-1.2l1.23-2.51c.85-1.68,1.73-3.37,2.67-5.06a42.6,42.6,0,0,1,3.17-5,22.85,22.85,0,0,1,2-2.17,28.62,28.62,0,0,1,2.28-2,12.79,12.79,0,0,1,5.51-2.8,6.17,6.17,0,0,1,3.16.24,8.83,8.83,0,0,1,2.77,1.6,9,9,0,0,1,2.09,2.47,4.58,4.58,0,0,1,.73,3.2,6,6,0,0,1-1.8,2.77c-.39.39-.87.73-1.23,1.07a3.26,3.26,0,0,0-.78,1.33,3.35,3.35,0,0,0-.12,1.54c.09.5.29,1,.44,1.56.31,1.06.62,2.13.92,3.2a89.39,89.39,0,0,1,2.78,13.25,19.54,19.54,0,0,1,.08,4.39,5.81,5.81,0,0,1-.2,1.09,7.26,7.26,0,0,1-.32,1c-.25.68-.51,1.36-.81,2a49.81,49.81,0,0,1-4.24,7.41,33.78,33.78,0,0,1-5.37,6.43,8.21,8.21,0,0,1-1.84,1c-.63.28-1.26.53-1.9.79-1.27.49-2.54.94-3.82,1.37-2.56.86-5.07,1.66-7.64,2.29s-5.06,1.22-7.57,1.69a27.83,27.83,0,0,1-7.51.45c-2.46-.21-4.86-.57-7.23-1a66,66,0,0,1-6.81-1.61,29.71,29.71,0,0,1-3.2-1.15,10.12,10.12,0,0,1-2.9-1.72,17.39,17.39,0,0,1-4-5.06c-.25-.46-.46-.94-.72-1.37a1.38,1.38,0,0,0-.47-.52l-.6-.46c-.82-.61-1.61-1.21-2.38-1.81-1.55-1.22-3-2.43-4.41-3.66a29.11,29.11,0,0,1-3.75-3.86A3.74,3.74,0,0,0,693.5,598a19.51,19.51,0,0,1-2.22-.91,9.32,9.32,0,0,1-2-1.28,3.9,3.9,0,0,1-.73-.89,2.08,2.08,0,0,1-.26-1.12h0a3.55,3.55,0,0,0-.79-2.23,10.38,10.38,0,0,1-1.45-1.85,5.11,5.11,0,0,1-.72-2.1,3.14,3.14,0,0,1,0-1.06,4.18,4.18,0,0,0,0-1,3,3,0,0,0-.72-1.68,16.2,16.2,0,0,1-1-1.45,8.62,8.62,0,0,1-1.23-2.79,3.16,3.16,0,0,1,0-1.3,5,5,0,0,1,.35-1.07,3,3,0,0,1,1.16-1.31,2.55,2.55,0,0,1,1-.32A1.57,1.57,0,0,1,685.32,575.68Z" fill="#2f2e41"/><path d="M701.65,588.18h-.16l-.46-.07c-.55-.11-1.09-.24-1.63-.4a18.53,18.53,0,0,1-5-2.38,3.85,3.85,0,0,1-1.79-2.45,2.42,2.42,0,0,1,.93-2.25,2.36,2.36,0,0,1,1.63-.43,1.79,1.79,0,0,1,.6.17,3.16,3.16,0,0,0-.6-.11,2.35,2.35,0,0,0-1.56.45,2.29,2.29,0,0,0-.86,2.17,3.75,3.75,0,0,0,1.74,2.35,19.33,19.33,0,0,0,5,2.39c.67.22,1.23.36,1.62.45l.44.1Z" fill="#2f2e41"/><path d="M767.07,562.85a1,1,0,1,0,.71,1.7l0,0a1,1,0,0,0,.16-1,1.08,1.08,0,0,0-1-.72" fill="#2f2e41"/><path d="M771.67,568a10.27,10.27,0,0,1,4.63.93,3.16,3.16,0,0,0-.27-2.39c-.39-.72-2.54-2.4-4.34-2.17" fill="#cfbb49"/><path d="M771.67,568a10.27,10.27,0,0,1,4.63.93,3.16,3.16,0,0,0-.27-2.39c-.39-.72-2.54-2.4-4.34-2.17" fill="#fff" opacity="0.2" style="isolation:isolate"/><path d="M774.54,566.08a1.36,1.36,0,0,1-.94-.21,1.32,1.32,0,0,1-.68-.73,5,5,0,0,0,.72.57A3,3,0,0,0,774.54,566.08Z" fill="#2f2e41"/><path d="M771.8,568a9.84,9.84,0,0,0-3.89,1.15,2.77,2.77,0,0,0-1.26,1.13,2.19,2.19,0,0,0,0,1.74,6.38,6.38,0,0,0,.91,1.53,3.85,3.85,0,0,0,.73.83,1.36,1.36,0,0,0,1,.32c.72-.13,1.17-1,1.88-1s1,.55,1.56.61a1.23,1.23,0,0,0,1.08-.55,2.61,2.61,0,0,0,.41-1.18,6.84,6.84,0,0,0-1-4.54A7.49,7.49,0,0,0,771.8,568Z" fill="#cfbb49"/><path d="M698.93,594.88l-.12-.07-.34-.25c-.29-.21-.72-.52-1.21-.93a44.26,44.26,0,0,1-3.74-3.37A5.62,5.62,0,0,1,692,588a2.56,2.56,0,0,1,.26-2.22,1.94,1.94,0,0,1,1.25-.84,1.06,1.06,0,0,1,.56,0,2.53,2.53,0,0,0-.55,0,2,2,0,0,0-1.2.82,2.44,2.44,0,0,0-.21,2.12,5.69,5.69,0,0,0,1.52,2.25c1.38,1.39,2.72,2.57,3.7,3.4l1.18,1,.32.26Z" fill="#2f2e41"/><path d="M698.51,600.86a2.38,2.38,0,0,1-.4-.31c-.35-.29-.68-.6-1-.92a18.43,18.43,0,0,1-2.73-3.55,14.32,14.32,0,0,1-1.1-2.22,2,2,0,0,1,.19-2,1.1,1.1,0,0,1,1.28-.33.76.76,0,0,1,.3.23l.07.11a1,1,0,0,0-1.4-.12,1.29,1.29,0,0,0-.16.17,1.9,1.9,0,0,0-.15,1.86,15.78,15.78,0,0,0,1.1,2.17,19.64,19.64,0,0,0,2.67,3.55c.4.42.73.73,1,1A2.82,2.82,0,0,1,698.51,600.86Z" fill="#2f2e41"/><path d="M764.7,578a8.19,8.19,0,0,0,.37-1.9,9.78,9.78,0,0,0-.22-1.94,1.84,1.84,0,0,1,.21.55,4.6,4.6,0,0,1-.11,2.77A1.67,1.67,0,0,1,764.7,578Z" fill="#2f2e41"/><path d="M763.43,579.51c.16-.54.3-1.09.41-1.65a16.1,16.1,0,0,0,.06-1.7,3.71,3.71,0,0,1,.08,1.72A3.64,3.64,0,0,1,763.43,579.51Z" fill="#2f2e41"/><path d="M751.21,613.49a2.93,2.93,0,0,1-.29.65,6.73,6.73,0,0,1-2.43,2.4,3.07,3.07,0,0,1-.64.29,12.81,12.81,0,0,0,1.91-1.45A11.56,11.56,0,0,0,751.21,613.49Z" fill="#2f2e41"/><path d="M752.61,613.35a1.54,1.54,0,0,1-.26.53,8.85,8.85,0,0,1-.81,1.12,9.44,9.44,0,0,1-1,1,1.75,1.75,0,0,1-.46.35s.62-.63,1.3-1.44S752.58,613.33,752.61,613.35Z" fill="#2f2e41"/><path d="M710.9,600.6a21.38,21.38,0,0,0,17.39,8l-2.17,2.4a16.7,16.7,0,0,0,10.44,1.36,44.28,44.28,0,0,0,10.17-3.29,38.21,38.21,0,0,0,7.79-4.06,14.47,14.47,0,0,0,5.39-6.79,23.17,23.17,0,0,1-16.06,7.61,45.27,45.27,0,0,1-8.14-.61,4.46,4.46,0,0,1-2.53-.89,1.56,1.56,0,0,1-.2-2.21.86.86,0,0,1,.13-.14,28.73,28.73,0,0,1-22-1.29" fill="#e0e0e0"/><path d="M745.89,584.16s1.13.15,3.13.6a41.3,41.3,0,0,1,8.25,2.71,9.88,9.88,0,0,1,2.45,1.53,5.87,5.87,0,0,1,1.77,2.56,5.41,5.41,0,0,1,.07,3.33,12.76,12.76,0,0,1-1.68,3.13,17.09,17.09,0,0,1-5.79,4.93,22.93,22.93,0,0,1-7.79,2.41,43.06,43.06,0,0,1-8.34.23l-2-.13a7.94,7.94,0,0,1-2-.31,2.2,2.2,0,0,1-1.45-1.24,1.45,1.45,0,0,1,.44-1.76l.06.12a29.23,29.23,0,0,1-22.07-2c-1-.56-1.56-.9-1.56-.9l.41.22c.27.15.65.38,1.17.64a29.49,29.49,0,0,0,22,2l.54-.16-.48.29a1.3,1.3,0,0,0-.39,1.59,2.05,2.05,0,0,0,1.36,1.16,8.34,8.34,0,0,0,1.92.29c.65,0,1.32.1,2,.13a42.76,42.76,0,0,0,8.31-.23,23,23,0,0,0,7.75-2.39,17,17,0,0,0,5.72-4.88,13,13,0,0,0,1.67-3.09,5.27,5.27,0,0,0-.06-3.24,6,6,0,0,0-1.72-2.53,9.69,9.69,0,0,0-2.43-1.51,42.49,42.49,0,0,0-8.22-2.76c-1-.23-1.78-.39-2.31-.49Z" fill="#2f2e41"/><path d="M725.64,596.46H725l-1.85.12L717,597l-3.37.16a19.34,19.34,0,0,0-2.74.22,2,2,0,0,0-1.39,1.07,1.66,1.66,0,0,0-.1.66.54.54,0,0,1,0-.18,1.22,1.22,0,0,1,.08-.5,2,2,0,0,1,1.45-1.15,18.15,18.15,0,0,1,2.75-.26l3.37-.18,6.12-.29,1.86-.08h.61Z" fill="#2f2e41"/><path d="M769.27,573.27a1.22,1.22,0,0,0,.4-.66c.13-.47-.09-1.16,0-1.93a4.72,4.72,0,0,1,.63-1.86,3.3,3.3,0,0,1,.34-.49c.09-.11.15-.16.16-.15a6.37,6.37,0,0,0-.41.72,5.14,5.14,0,0,0-.57,1.83c0,.65,0,1.29-.06,1.94C769.63,573.16,769.26,573.32,769.27,573.27Z" fill="#2f2e41"/><path d="M772.87,571.55a1.82,1.82,0,0,1-.42-.36,3.7,3.7,0,0,1-.73-1.14,4,4,0,0,1-.26-1.32,1.28,1.28,0,0,1,0-.55,6.19,6.19,0,0,0,.36,1.81A6.11,6.11,0,0,0,772.87,571.55Z" fill="#2f2e41"/><g opacity="0.3"><path d="M770.83,568.17a3.33,3.33,0,0,0-1,2.38,18.22,18.22,0,0,1-.2,2.66,1.63,1.63,0,0,0,1.1-1.54,4,4,0,0,1,0-1.09c.08-.29.31-.53.36-.82s-.24-.86-.11-1.28a.54.54,0,0,0,0-.18.14.14,0,0,0-.08-.15c-.06,0-.13,0-.11.1"/></g><path d="M745.35,594.09l-.34.19a7.4,7.4,0,0,1-1,.44,11.05,11.05,0,0,1-6.85.35,9.06,9.06,0,0,1-1-.34,2.83,2.83,0,0,1-.36-.16s.52.18,1.38.39a12.37,12.37,0,0,0,3.43.33,12.52,12.52,0,0,0,3.37-.67C744.85,594.29,745.33,594.06,745.35,594.09Z" fill="#2f2e41"/><path d="M751.1,595.69l-.37.25a6.61,6.61,0,0,1-1,.57,10,10,0,0,1-3.83.9,9.84,9.84,0,0,1-2.17-.18,5.06,5.06,0,0,1-1.69-.58,1.73,1.73,0,0,1-.72-.94.79.79,0,0,1,0-.43,3.15,3.15,0,0,0,.09.42,1.73,1.73,0,0,0,.72.86,5.33,5.33,0,0,0,1.65.54,9.87,9.87,0,0,0,2.17.15,10.53,10.53,0,0,0,3.79-.83c.46-.21.82-.39,1.06-.53A1.57,1.57,0,0,1,751.1,595.69Z" fill="#2f2e41"/><path d="M754.55,596.41a1.36,1.36,0,0,1-.24.24,5.21,5.21,0,0,1-.72.6,9.1,9.1,0,0,1-2.8,1.32,8.94,8.94,0,0,1-3.09.3,7.46,7.46,0,0,1-.93-.14l-.33-.09c.42.06.84.1,1.27.12a9.55,9.55,0,0,0,5.82-1.6C754.2,596.72,754.53,596.39,754.55,596.41Z" fill="#2f2e41"/></svg>