<svg id="bad9fe94-f1c8-4baa-81b1-992b72682067" data-name="Layer 1" xmlns="http://www.w3.org/2000/svg" xmlns:xlink="http://www.w3.org/1999/xlink" width="865.76" height="682.89" viewBox="0 0 865.76 682.89"><defs><clipPath id="ebfd3318-6679-41ed-9547-6cf9bcbc780d"><path id="a43e41b6-6dcf-4dc3-9fb2-337117b24049" data-name="SVGID" d="M152.15,346.58s28.57-5.37,54.78-2.69l127.68,4s59.14,11.42,55.11,102.82c0,0-5.38,82-51.75,88,0,0-30.17,1.52-36.85-1.39,0,0-17.46.9-30.77,2.88a67,67,0,0,1-11.84.72l-106.36-2.89Z" fill="#d1d3d4"/></clipPath><clipPath id="ba92b842-6b0a-4fa2-9ffa-f966d7a89aca"><path id="ba81b79e-947b-4924-8601-cbde0071c558" data-name="SVGID" d="M278.31,319.68s34.52-6.5,66.19-3.25l154.3,4.88s71.46,13.8,66.59,124.25c0,0-6.5,99.07-62.53,106.38,0,0-36.46,1.84-44.53-1.67,0,0-21.11,1.08-37.18,3.48a81.68,81.68,0,0,1-14.32.86l-128.52-3.48Z" fill="#d1d3d4"/></clipPath><clipPath id="bb8c334f-099f-4970-8952-b1da4d2535d2"><path id="edfcfa21-ffd4-4bcd-a4a6-e4229078079a" data-name="SVGID" d="M533.34,335.82s31.41-5.91,60.23-3L734,337.3s65,12.56,60.6,113.07c0,0-5.91,90.16-56.9,96.81,0,0-33.18,1.67-40.53-1.53,0,0-19.2,1-33.83,3.17a73.76,73.76,0,0,1-13,.79l-116.95-3.17Z" fill="#d1d3d4"/></clipPath></defs><g id="b54c1dc4-9cef-4141-b1e5-fe02eebbfd91" data-name="freepik--background-simple--inject-1"><path d="M853.48,504.8C871.77,367.37,783,184.73,691.17,109.31,525.22-26.86,387.35-.53,280.1,48.22S157.64,259.85,83.59,333.51s-116.16,172.75-3.81,271.4,203.06,48.52,320.42,42.25,273.2,43,357.45.18C816.49,617.44,845.46,565.62,853.48,504.8Z" fill="#E38B0E"/><path d="M853.48,504.8C871.77,367.37,783,184.73,691.17,109.31,525.22-26.86,387.35-.53,280.1,48.22S157.64,259.85,83.59,333.51s-116.16,172.75-3.81,271.4,203.06,48.52,320.42,42.25,273.2,43,357.45.18C816.49,617.44,845.46,565.62,853.48,504.8Z" fill="#fff" opacity="0.8" style="isolation:isolate"/></g><g id="e8ee3f42-0f85-4b03-8d0e-a11cfc9f6b31" data-name="freepik--Floor--inject-1"><path d="M21.2,528c10.46,25.34,29.26,51.13,58.58,76.85,112.34,98.63,203.06,48.52,320.42,42.25s273.2,43,357.45.18c51.18-26,79.77-68.68,91.66-119.32Z" fill="#E38B0E"/><path d="M21.2,528c10.46,25.34,29.26,51.13,58.58,76.85,112.34,98.63,203.06,48.52,320.42,42.25s273.2,43,357.45.18c51.18-26,79.77-68.68,91.66-119.32Z" fill="#fff" opacity="0.5" style="isolation:isolate"/></g><path d="M133,524.57S15.44,538.63,55.05,552.68c0,0,125.23,11.5,90.73,28.11,0,0-38.34,9,14.05,15.34l153.34,7.66s57.5,1.28,29.39,15.34c0,0-26.83,11.5,17.89,12.78,0,0,190.39,15.33,147-8.95,0,0-24.28-6.39,31.94-8.94,0,0,244.07,7.66,190.4-20.45,0,0-29.39-12.78,24.28-21.72,0,0,140.56-5.11,109.89-26.83A101.93,101.93,0,0,0,809,536.07s80.5-23-17.89-10.22c0,0,69-33.23,79.23-52.39,0,0-47.28-1.28-61.34,20.44l-29.39,30.67,30.67-55s-16.61,5.12-24.28,17.89Z" fill="#ebebeb"/><path d="M144.5,537.35S99.77,554,139.39,555.24c0,0,196.78,10.22,240.23,7.66,0,0-17.89,12.78,35.77,16.62,0,0,102.23,7.66,76.67-21.73,0,0,411.46,11.08,265.79-18.74L276.11,528.4Z" fill="#bcbec0"/><path id="a7a0aeeb-9e01-4c5d-8d99-4e157badf36a" data-name="SVGID" d="M152.15,346.58s28.57-5.37,54.78-2.69l127.68,4s59.14,11.42,55.11,102.82c0,0-5.38,82-51.75,88,0,0-30.17,1.52-36.85-1.39,0,0-17.46.9-30.77,2.88a67,67,0,0,1-11.84.72l-106.36-2.89Z" fill="#d1d3d4"/><g clip-path="url(#ebfd3318-6679-41ed-9547-6cf9bcbc780d)"><path d="M195.31,448.14s3.46,38.51,10,47.92a4.46,4.46,0,0,0,3.11,1.88l19.85,2.49a7.83,7.83,0,0,0,5.51-1.37c5.05-3.55,15.94-12.27,19.47-23.44,0,0,2.32,7.75-2.33,21.3,0,0-1.16,7,7,8.14H271.1s18.21-23.24,27.51-38c0,0-5.81,22.46-10.85,34.47,0,0-2.32,3.88,4.26,2.71,0,0,20.53,2.33,24.4-6.58,0,0,3.1-20.14,11.24-17,0,0,3.09,1.16,8.13,7,0,0,4.65,7.36,9.68.77,0,0,18.59-18.2,22.08-27.11,0,0,0,23.24-1.16,28.66,0,0,17-15.88,22.85-32.53,0,0-7.74,59.65-32.92,74,0,0-8,7-18.35,7.39,0,0-31.62,1.52-36.85-1.39,0,0-13.17.78-26.34,2.32,0,0-10.84,1.94-19.17,1.17l-103.46-2.78s26.38,2.2,38.58-52.42C190.73,485.69,195.81,465.77,195.31,448.14Z" opacity="0.2"/></g><line x1="219.1" y1="447.65" x2="233.36" y2="458.58" fill="none" stroke="#bcbec0" stroke-miterlimit="10" stroke-width="2"/><path d="M215.78,428.64l12.63,11.56a26.26,26.26,0,0,1,6.22,8.58l4.43,9.8" fill="none" stroke="#bcbec0" stroke-miterlimit="10" stroke-width="2"/><path d="M246.51,410.45l5.68,9.18a9.81,9.81,0,0,1,1.37,6.54l-.95,6.65" fill="none" stroke="#bcbec0" stroke-miterlimit="10" stroke-width="2"/><line x1="265.1" y1="412.78" x2="259.87" y2="426.14" fill="none" stroke="#bcbec0" stroke-miterlimit="10" stroke-width="2"/><line x1="210.78" y1="357" x2="218.04" y2="381.11" fill="none" stroke="#bcbec0" stroke-miterlimit="10" stroke-width="2"/><path d="M227.34,357.87l-4.48,10.69a8.81,8.81,0,0,0-.68,3.76l.22,5.6" fill="none" stroke="#bcbec0" stroke-miterlimit="10" stroke-width="2"/><line x1="272.36" y1="375.59" x2="295.89" y2="395.35" fill="none" stroke="#bcbec0" stroke-miterlimit="10" stroke-width="2"/><line x1="299.09" y1="387.5" x2="292.7" y2="369.78" fill="none" stroke="#bcbec0" stroke-miterlimit="10" stroke-width="2"/><line x1="300.54" y1="447.93" x2="313.91" y2="417.13" fill="none" stroke="#bcbec0" stroke-miterlimit="10" stroke-width="2"/><path d="M309.84,443.86s8.13-12.78,14.52-17.43" fill="none" stroke="#bcbec0" stroke-miterlimit="10" stroke-width="2"/><path d="M345.28,431.66l3.14-6.29a21.38,21.38,0,0,0,2-6.33l1.81-11.78" fill="none" stroke="#bcbec0" stroke-miterlimit="10" stroke-width="2"/><line x1="352.25" y1="427.01" x2="374.91" y2="410.16" fill="none" stroke="#bcbec0" stroke-miterlimit="10" stroke-width="2"/><line x1="389.12" y1="447.93" x2="407.29" y2="432.96" fill="none" stroke="#bcbec0" stroke-miterlimit="10" stroke-width="2"/><line x1="404.62" y1="450.61" x2="389.72" y2="450.75" fill="none" stroke="#bcbec0" stroke-miterlimit="10" stroke-width="2"/><line x1="342.07" y1="350.1" x2="347.42" y2="336.73" fill="none" stroke="#bcbec0" stroke-miterlimit="10" stroke-width="2"/><polyline points="345.81 352.24 352.23 347.42 356.5 337.27" fill="none" stroke="#bcbec0" stroke-miterlimit="10" stroke-width="2"/><line x1="313.71" y1="342.38" x2="319.52" y2="347.41" fill="none" stroke="#bcbec0" stroke-miterlimit="10" stroke-width="2"/><polyline points="323.01 338.5 326.11 346.25 326.11 349.74" fill="none" stroke="#bcbec0" stroke-miterlimit="10" stroke-width="2"/><ellipse cx="152.15" cy="442.35" rx="43.35" ry="95.77" fill="#bcbec0"/><path d="M137.28,524.62s12.81,6.68,19.35-1.22a8.8,8.8,0,0,0,.76-1.15,184.84,184.84,0,0,0,17.9-50.19,125.1,125.1,0,0,0-4-64c-8-24.28-20.87-56-29.42-40.55-1.81,3.27-3.79,6.44-5.82,9.58-6.72,10.37-19,33.84-17.33,64.47,0,0,0,51.12,9.29,60.42,0,0,18,22.66,24.41,2.32,0,0,14.38-60.2-3.28-95.92a2.73,2.73,0,0,0-4.92,0c-5.66,12-18.07,45.39.54,78a2.3,2.3,0,0,0,4.13-.28l1.78-4.46" fill="none" stroke="#939598" stroke-miterlimit="10" stroke-width="3" opacity="0.2"/><path id="a9006156-d03b-4fe0-8a93-56e03c316e16" data-name="SVGID" d="M278.31,319.68s34.52-6.5,66.19-3.25l154.3,4.88s71.46,13.8,66.59,124.25c0,0-6.5,99.07-62.53,106.38,0,0-36.46,1.84-44.53-1.67,0,0-21.11,1.08-37.18,3.48a81.68,81.68,0,0,1-14.32.86l-128.52-3.48Z" fill="#d1d3d4"/><g clip-path="url(#ba92b842-6b0a-4fa2-9ffa-f966d7a89aca)"><path d="M330.46,442.4s4.19,46.54,12.13,57.91a5.39,5.39,0,0,0,3.76,2.27l24,3a9.5,9.5,0,0,0,6.66-1.65c6.1-4.3,19.26-14.83,23.52-28.33,0,0,2.81,9.36-2.81,25.74,0,0-1.4,8.43,8.43,9.83h15.91s22-28.08,33.23-45.87c0,0-7,27.15-13.1,41.66,0,0-2.81,4.68,5.15,3.28,0,0,24.8,2.81,29.48-8,0,0,3.75-24.34,13.58-20.59,0,0,3.74,1.4,9.83,8.42,0,0,5.61,8.89,11.7.94,0,0,22.46-22,26.68-32.77,0,0,0,28.09-1.41,34.64,0,0,20.6-19.19,27.62-39.32,0,0-9.36,72.08-39.79,89.4,0,0-9.7,8.5-22.16,8.93,0,0-38.22,1.84-44.53-1.67,0,0-15.92.93-31.83,2.8,0,0-13.11,2.34-23.17,1.41l-125-3.35s31.88,2.65,46.62-63.35C324.93,487.78,331.07,463.71,330.46,442.4Z" opacity="0.2"/></g><line x1="359.21" y1="441.81" x2="376.44" y2="455.02" fill="none" stroke="#bcbec0" stroke-miterlimit="10" stroke-width="2"/><path d="M355.19,418.84l15.27,14A31.61,31.61,0,0,1,378,443.18L383.33,455" fill="none" stroke="#bcbec0" stroke-miterlimit="10" stroke-width="2"/><path d="M392.33,396.86,399.2,408a11.81,11.81,0,0,1,1.65,7.89l-1.15,8" fill="none" stroke="#bcbec0" stroke-miterlimit="10" stroke-width="2"/><line x1="414.8" y1="399.67" x2="408.48" y2="415.82" fill="none" stroke="#bcbec0" stroke-miterlimit="10" stroke-width="2"/><line x1="349.15" y1="332.27" x2="357.93" y2="361.41" fill="none" stroke="#bcbec0" stroke-miterlimit="10" stroke-width="2"/><path d="M369.16,333.32l-5.4,12.92a10.53,10.53,0,0,0-.83,4.54l.26,6.76" fill="none" stroke="#bcbec0" stroke-miterlimit="10" stroke-width="2"/><line x1="423.57" y1="354.74" x2="452.01" y2="378.61" fill="none" stroke="#bcbec0" stroke-miterlimit="10" stroke-width="2"/><line x1="455.87" y1="369.13" x2="448.15" y2="347.72" fill="none" stroke="#bcbec0" stroke-miterlimit="10" stroke-width="2"/><line x1="457.62" y1="442.15" x2="473.77" y2="404.93" fill="none" stroke="#bcbec0" stroke-miterlimit="10" stroke-width="2"/><path d="M468.86,437.23s9.83-15.45,17.55-21.06" fill="none" stroke="#bcbec0" stroke-miterlimit="10" stroke-width="2"/><path d="M511.68,422.49l3.81-7.61a25.92,25.92,0,0,0,2.43-7.64L520.11,393" fill="none" stroke="#bcbec0" stroke-miterlimit="10" stroke-width="2"/><line x1="520.11" y1="416.87" x2="547.49" y2="396.51" fill="none" stroke="#bcbec0" stroke-miterlimit="10" stroke-width="2"/><line x1="564.66" y1="442.15" x2="586.62" y2="424.07" fill="none" stroke="#bcbec0" stroke-miterlimit="10" stroke-width="2"/><line x1="583.39" y1="445.39" x2="565.39" y2="445.56" fill="none" stroke="#bcbec0" stroke-miterlimit="10" stroke-width="2"/><line x1="507.8" y1="323.93" x2="514.26" y2="307.78" fill="none" stroke="#bcbec0" stroke-miterlimit="10" stroke-width="2"/><polyline points="512.33 326.51 520.08 320.7 525.25 308.42" fill="none" stroke="#bcbec0" stroke-miterlimit="10" stroke-width="2"/><line x1="473.54" y1="314.6" x2="480.56" y2="320.68" fill="none" stroke="#bcbec0" stroke-miterlimit="10" stroke-width="2"/><polyline points="484.77 309.92 488.51 319.28 488.51 323.49" fill="none" stroke="#bcbec0" stroke-miterlimit="10" stroke-width="2"/><ellipse cx="278.31" cy="435.4" rx="52.38" ry="115.72" fill="#bcbec0"/><path d="M260.34,534.82s15.48,8.08,23.38-1.47a9.84,9.84,0,0,0,.92-1.39,223.34,223.34,0,0,0,21.62-60.65,151.1,151.1,0,0,0-4.86-77.37c-9.67-29.33-25.22-67.67-35.55-49-2.19,4-4.58,7.79-7,11.58-8.11,12.54-23,40.89-20.94,77.9,0,0,0,61.79,11.24,73,0,0,21.76,27.38,29.48,2.81,0,0,17.39-72.75-3.95-115.91a3.31,3.31,0,0,0-6,0c-6.84,14.48-21.82,54.86.66,94.21a2.78,2.78,0,0,0,5-.35l2.15-5.37" fill="none" stroke="#939598" stroke-miterlimit="10" stroke-width="3" opacity="0.2"/><path id="b8312515-29ca-471a-ba64-04d6132e9912" data-name="SVGID" d="M533.34,335.82s31.41-5.91,60.23-3L734,337.3s65,12.56,60.6,113.07c0,0-5.91,90.16-56.9,96.81,0,0-33.18,1.67-40.53-1.53,0,0-19.2,1-33.83,3.17a73.76,73.76,0,0,1-13,.79l-116.95-3.17Z" fill="#d1d3d4"/><g clip-path="url(#bb8c334f-099f-4970-8952-b1da4d2535d2)"><path d="M580.79,447.49s3.81,42.35,11,52.71a5,5,0,0,0,3.42,2.06L617.08,505a8.63,8.63,0,0,0,6.07-1.51c5.55-3.9,17.52-13.49,21.4-25.77,0,0,2.56,8.52-2.56,23.42,0,0-1.27,7.67,7.67,8.95h14.48s20-25.56,30.24-41.74c0,0-6.38,24.7-11.92,37.9,0,0-2.56,4.26,4.68,3,0,0,22.58,2.55,26.84-7.24,0,0,3.41-22.15,12.35-18.75,0,0,3.41,1.28,8.94,7.67,0,0,5.12,8.09,10.65.85,0,0,20.45-20,24.28-29.81,0,0,0,25.55-1.28,31.52,0,0,18.75-17.47,25.13-35.78,0,0-8.51,65.59-36.2,81.35,0,0-8.83,7.73-20.17,8.13,0,0-34.78,1.67-40.53-1.53,0,0-14.48.86-29,2.56,0,0-11.93,2.13-21.08,1.28l-113.77-3s29,2.41,42.42-57.65C575.76,488.79,581.35,466.89,580.79,447.49Z" opacity="0.2"/></g><line x1="606.96" y1="446.96" x2="622.63" y2="458.98" fill="none" stroke="#bcbec0" stroke-miterlimit="10" stroke-width="2"/><path d="M603.3,426.06l13.9,12.7A29.07,29.07,0,0,1,624,448.2L628.9,459" fill="none" stroke="#bcbec0" stroke-miterlimit="10" stroke-width="2"/><path d="M637.1,406.05l6.25,10.1a10.77,10.77,0,0,1,1.5,7.18l-1.05,7.32" fill="none" stroke="#bcbec0" stroke-miterlimit="10" stroke-width="2"/><line x1="657.54" y1="408.61" x2="651.79" y2="423.3" fill="none" stroke="#bcbec0" stroke-miterlimit="10" stroke-width="2"/><line x1="597.8" y1="347.27" x2="605.79" y2="373.79" fill="none" stroke="#bcbec0" stroke-miterlimit="10" stroke-width="2"/><path d="M616,348.23,611.09,360a9.94,9.94,0,0,0-.75,4.14l.24,6.15" fill="none" stroke="#bcbec0" stroke-miterlimit="10" stroke-width="2"/><line x1="665.53" y1="367.72" x2="691.4" y2="389.44" fill="none" stroke="#bcbec0" stroke-miterlimit="10" stroke-width="2"/><line x1="694.92" y1="380.82" x2="687.89" y2="361.33" fill="none" stroke="#bcbec0" stroke-miterlimit="10" stroke-width="2"/><line x1="696.51" y1="447.26" x2="711.21" y2="413.4" fill="none" stroke="#bcbec0" stroke-miterlimit="10" stroke-width="2"/><path d="M706.74,442.79s8.94-14.06,16-19.17" fill="none" stroke="#bcbec0" stroke-miterlimit="10" stroke-width="2"/><path d="M745.71,429.37l3.46-6.92a23.6,23.6,0,0,0,2.21-6.95l2-13" fill="none" stroke="#bcbec0" stroke-miterlimit="10" stroke-width="2"/><line x1="753.38" y1="424.26" x2="778.29" y2="405.73" fill="none" stroke="#bcbec0" stroke-miterlimit="10" stroke-width="2"/><line x1="793.92" y1="447.27" x2="813.91" y2="430.81" fill="none" stroke="#bcbec0" stroke-miterlimit="10" stroke-width="2"/><line x1="810.97" y1="450.21" x2="794.58" y2="450.37" fill="none" stroke="#bcbec0" stroke-miterlimit="10" stroke-width="2"/><line x1="742.18" y1="339.68" x2="748.06" y2="324.98" fill="none" stroke="#bcbec0" stroke-miterlimit="10" stroke-width="2"/><polyline points="746.29 342.03 753.35 336.74 758.05 325.57" fill="none" stroke="#bcbec0" stroke-miterlimit="10" stroke-width="2"/><line x1="711" y1="331.19" x2="717.39" y2="336.73" fill="none" stroke="#bcbec0" stroke-miterlimit="10" stroke-width="2"/><polyline points="721.22 326.93 724.63 335.45 724.63 339.29" fill="none" stroke="#bcbec0" stroke-miterlimit="10" stroke-width="2"/><ellipse cx="533.34" cy="441.13" rx="47.67" ry="105.31" fill="#bcbec0"/><path d="M517,531.6s14.09,7.35,21.28-1.34a7.71,7.71,0,0,0,.83-1.27,202.92,202.92,0,0,0,19.68-55.19,137.45,137.45,0,0,0-4.42-70.4c-8.8-26.7-23-61.59-32.36-44.59-2,3.59-4.16,7.09-6.4,10.54-7.38,11.4-20.92,37.2-19.05,70.88,0,0,0,56.23,10.22,66.45,0,0,19.8,24.92,26.83,2.56,0,0,15.82-66.21-3.59-105.48a3,3,0,0,0-5.43,0c-6.22,13.18-19.86,49.92.6,85.74a2.53,2.53,0,0,0,4.55-.32l2-4.89" fill="none" stroke="#939598" stroke-miterlimit="10" stroke-width="3" opacity="0.2"/><path d="M529.83,217.29l3.91,8.37-10.49.2s.44-3.88-.41-5.88Z" fill="#f9b499"/><path d="M385.36,592.38l.38,6.9s11.85-1.87,10.14-18.41C395.88,580.87,395.47,586,385.36,592.38Z" fill="#2f2e41"/><path d="M385.74,599.28l-5.12-2.11s-.72.14,1.79-2.11a28.86,28.86,0,0,1,3.11-2.58Z" fill="#2f2e41"/><path d="M385.74,599.28l-5.12-2.11s-.72.14,1.79-2.11a28.86,28.86,0,0,1,3.11-2.58Z" opacity="0.2"/><path d="M458.2,604s0,12.58,16.75,15.95a25.85,25.85,0,0,0,12.3-.39c5.1-1.47,10.24-4.91,6.83-12.92Z" fill="#2f2e41"/><polygon points="449.03 600.13 454.6 598.94 449.21 594.02 449.03 600.13" fill="#2f2e41"/><polygon points="449.03 600.13 454.6 598.94 449.21 594.02 449.03 600.13" opacity="0.2"/><path d="M439.32,583.59S437,593.3,449,600.13l.18-6.11-4.8-4.08S440.18,589.5,439.32,583.59Z" fill="#2f2e41"/><path d="M392.82,144.75s-18.72,7.17-27.14,8.73c0,0-11.54.63-16.85,18.72,0,0-22.46,50.86-30.57,58.34,0,0-4.37,5.31-2.81,9.05,0,0,10-1.25,21.22,9.67,0,0,6.86,5,7.8,9.36a67.06,67.06,0,0,0,12.48-24s3.35-9.51,7.15-12.64a5.51,5.51,0,0,1,.65-.46l.31,57.09,106,.35-5.5-62.12,33.69,6.24s10.61-15,21.53-16.23c0,0-8.43-14-16.54-18.4,0,0-12.48-10.61-17.78-19,0,0-9.67-12.16-18.1-15,0,0-11.54-8.11-15.28-8.42Z" fill="#E38B0E"/><path d="M441.42,154.22c-14.65,15-20.59,35.89-20.59,35.89L414,173.88a92.14,92.14,0,0,1-10-27.14,3.9,3.9,0,0,1,.61-2.83c6.72-10.5,4.56-28.5,4.56-28.5l.13.6c3.38,12.49,12,21.38,22.18,21.38a18.65,18.65,0,0,0,11.25-4C444.83,152.67,441.42,154.22,441.42,154.22Z" fill="#f9b499"/><path d="M373.26,151.74s-.16,40.24,3.27,48c0,0,6.24,1.25,10.61-2.8l-3.27-49.3Z" fill="#2f2e41"/><path d="M453.81,198.63s5.68-33,6.71-49.74c0,0,7.27.56,9.69,5.84a190.41,190.41,0,0,0-2.86,23.55,112.48,112.48,0,0,1-1.94,16.47c-.75,3.72-1.6,7.28-2.3,8.42Z" fill="#2f2e41"/><g opacity="0.2"><path d="M469.18,214.76l-1,0c.41-8.86,4.94-21.3,5-21.43l.94.35C474.06,193.76,469.59,206.06,469.18,214.76Z"/></g><g opacity="0.2"><path d="M365.91,221l-1,0c.61-18.59-6.41-26.84-6.49-26.92l.76-.66C359.48,193.69,366.53,202,365.91,221Z"/></g><path d="M376.53,199.78s-.87,2.89,1.62,3.88c0,0,3.24-2,2.49,7.22,0,0,.5-5.72,6.73-2.49,0,0,2.28-3.9-.23-11.41A12.75,12.75,0,0,1,376.53,199.78Z" fill="none" stroke="#2f2e41" stroke-miterlimit="10" stroke-width="0.5"/><path d="M453.81,198.63s-1.69,3-.53,4.69a5.5,5.5,0,0,1,1.08,3.08v3.24a4.1,4.1,0,0,1,4,1,4.26,4.26,0,0,1,2.12-2.31,3.31,3.31,0,0,0,2.06-2.22l.58-2.93Z" fill="none" stroke="#2f2e41" stroke-miterlimit="10" stroke-width="0.5"/><path d="M474,319.59l-7.64-97.5c-.93-16.54-6.55-13.26-6.55-13.26l-5.37-.73c-15.27,3.14-65.92-2.55-65.92-2.55l-1.18,2.84-.33.27a4,4,0,1,1-6.09,5l0,0c-4.06,3-7.49,23.4-7.49,23.4-.47,12.47-6.55,34.31-6.55,34.31-6.64,17.18-5.13,40.87-4.45,48.25a9.6,9.6,0,0,1-.53,4.12c-7.15,20,.3,92.71.3,92.71,5.61,22,3.27,59.43,3.27,59.43-3.74,6.55-.46,14.51-.46,14.51,15.44,15,36,1.87,36,1.87,7-3.28,8.42-47.27,8.42-47.27,0-35.1,7.49-56.62,7.49-56.62,7.49,17.78,12.64,89.85,12.64,89.85-1.41,10.76,0,14,0,14,27.61,13.57,39.31-2.81,39.31-2.81,5.61-7,3.27-56.16,3.27-56.16l5.15-74.4C479.17,339.24,474,319.59,474,319.59ZM456.63,214.76a2.68,2.68,0,1,1,2.11-3.16A2.68,2.68,0,0,1,456.63,214.76Z" fill="#2f2e41"/><g opacity="0.2"><rect x="351.6" y="337.97" width="35.07" height="1" transform="translate(-115.59 464.44) rotate(-57.09)"/></g><g opacity="0.2"><rect x="465.63" y="320.31" width="1" height="33.42" transform="translate(-105.79 275.66) rotate(-29.74)"/></g><g opacity="0.2"><path d="M366.31,320.93l-.16-1c.7-.12,71-11.92,102.21-1.64l-.31.95C437,309.05,367,320.81,366.31,320.93Z"/></g><g opacity="0.2"><path d="M368.75,310.16l-.07-1c.73-.05,73.3-5.34,97.13-.82l-.19,1C441.92,304.83,369.48,310.11,368.75,310.16Z"/></g><g opacity="0.2"><path d="M402.74,282h-22.4a4.17,4.17,0,0,1-3-1.25,4.23,4.23,0,0,1-1.21-3l.38-27.83,11.75,5.75a2.69,2.69,0,0,0,1.7.23l14.41-2.77a1,1,0,0,0,.73-.58l.85-1.8h1v27.06A4.19,4.19,0,0,1,402.74,282Zm-25.25-30.49-.35,26.25a3.19,3.19,0,0,0,3.2,3.24h22.4a3.2,3.2,0,0,0,3.19-3.2V253.11a2,2,0,0,1-1.36,1l-14.41,2.77a3.73,3.73,0,0,1-2.33-.31Z"/></g><path d="M389.46,256.92a3.65,3.65,0,0,1-1.63-.38l-11.05-5.4a2,2,0,0,1-.91-2.73l2.52-4.8a1.22,1.22,0,0,1,1.08-.63l28.85,1.19a1.18,1.18,0,0,1,1,1.66h0L406,253a2.05,2.05,0,0,1-1.45,1.13l-14.41,2.77A3.33,3.33,0,0,1,389.46,256.92Zm-12.3-6.71.06,0,11,5.4a2.69,2.69,0,0,0,1.7.23l14.41-2.77a1,1,0,0,0,.73-.58l3.31-7.11a.17.17,0,0,0,0-.16.16.16,0,0,0-.14-.08L379.43,244a.16.16,0,0,0-.15.09l-2.52,4.8a1,1,0,0,0-.06.78A1,1,0,0,0,377.16,250.21Z" fill="#2f2e41"/><g opacity="0.2"><path d="M389.46,256.92a3.65,3.65,0,0,1-1.63-.38l-11.05-5.4a2,2,0,0,1-.91-2.73l2.52-4.8a1.22,1.22,0,0,1,1.08-.63l28.85,1.19a1.18,1.18,0,0,1,1,1.66h0L406,253a2.05,2.05,0,0,1-1.45,1.13l-14.41,2.77A3.33,3.33,0,0,1,389.46,256.92Zm-12.3-6.71.06,0,11,5.4a2.69,2.69,0,0,0,1.7.23l14.41-2.77a1,1,0,0,0,.73-.58l3.31-7.11a.17.17,0,0,0,0-.16.16.16,0,0,0-.14-.08L379.43,244a.16.16,0,0,0-.15.09l-2.52,4.8a1,1,0,0,0-.06.78A1,1,0,0,0,377.16,250.21Z"/></g><g opacity="0.2"><path d="M453.1,282H430.7a4.2,4.2,0,0,1-4.2-4.26l.37-27.83,11.76,5.75a2.69,2.69,0,0,0,1.7.23l14.41-2.77a1,1,0,0,0,.73-.58l.84-1.8h1v27.06A4.2,4.2,0,0,1,453.1,282Zm-25.25-30.49-.35,26.25a3.19,3.19,0,0,0,3.2,3.24h22.4a3.2,3.2,0,0,0,3.19-3.2V253.11a2,2,0,0,1-1.37,1l-14.4,2.77a3.72,3.72,0,0,1-2.33-.31Z"/></g><path d="M439.82,256.92a3.65,3.65,0,0,1-1.63-.38l-11.06-5.4a2,2,0,0,1-1-1.18,2,2,0,0,1,.12-1.55l2.52-4.8a1.2,1.2,0,0,1,1.08-.63l28.84,1.19a1.16,1.16,0,0,1,.95.56,1.19,1.19,0,0,1,.07,1.1h0L456.37,253a2,2,0,0,1-1.45,1.13l-14.4,2.77A3.39,3.39,0,0,1,439.82,256.92Zm-12.31-6.71.07,0,11.05,5.4a2.69,2.69,0,0,0,1.7.23l14.41-2.77a1,1,0,0,0,.73-.58l3.31-7.11a.17.17,0,0,0,0-.16.16.16,0,0,0-.14-.08L429.79,244a.17.17,0,0,0-.16.09l-2.52,4.8a1.05,1.05,0,0,0-.06.78A1,1,0,0,0,427.51,250.21Z" fill="#2f2e41"/><g opacity="0.2"><path d="M439.82,256.92a3.65,3.65,0,0,1-1.63-.38l-11.06-5.4a2,2,0,0,1-1-1.18,2,2,0,0,1,.12-1.55l2.52-4.8a1.2,1.2,0,0,1,1.08-.63l28.84,1.19a1.16,1.16,0,0,1,.95.56,1.19,1.19,0,0,1,.07,1.1h0L456.37,253a2,2,0,0,1-1.45,1.13l-14.4,2.77A3.39,3.39,0,0,1,439.82,256.92Zm-12.31-6.71.07,0,11.05,5.4a2.69,2.69,0,0,0,1.7.23l14.41-2.77a1,1,0,0,0,.73-.58l3.31-7.11a.17.17,0,0,0,0-.16.16.16,0,0,0-.14-.08L429.79,244a.17.17,0,0,0-.16.09l-2.52,4.8a1.05,1.05,0,0,0-.06.78A1,1,0,0,0,427.51,250.21Z"/></g><path d="M316,239.09s-9,3-7.12,9.48a2.4,2.4,0,0,0,1.84,1.69c5.67,1.18,28.21,6.84,24.93,21.59,0,0,.94,2.5,5-2.81,0,0,5.92-4.36,4.36-10.92C345,258.12,335.35,241,316,239.09Z" fill="#2f2e41"/><g opacity="0.2"><path d="M414.71,208c-1.46-7.05,5.41-17.72,5.7-18.17l.84.55c-.07.1-6.94,10.77-5.56,17.41Z"/></g><path d="M364.21,488.06s-2.81-.63-2.18,5.77L369.67,562s1.87,11.85-4.06,17.16c0,0-22.33,21.64-24.33,27.14,0,0-5,9.67,7.49,11.54,0,0,23.71,5.31,27.14-13.41,0,0,4.68-7.8,8.74-10.92,0,0,15-7.18,10.29-16.85,0,0-1.25-17.47,1.25-30.26,0,0,12.17-55.85,4.83-54.13,0,0-17.94,11.65-34-.2a8.18,8.18,0,0,1-2.85-4Z" fill="#E38B0E"/><path d="M340.33,610.05s20.6,13.72,35.58-5.62c0,0-.62,15-21.53,14.35C354.38,618.78,339.67,619.06,340.33,610.05Z" fill="#2f2e41"/><path d="M429.57,492.27l3.51,31.86a63.9,63.9,0,0,0,1.33,7.64c2.28,9.6,8.07,35.67,5.66,43.38,0,0-3.95,12.43,4.48,15.24,0,0,9.83,7,13.88,14a21.61,21.61,0,0,0,8.14,8c5.81,3.21,14.71,6,24,1a6.75,6.75,0,0,0,3.23-3.61c.74-2.08.62-5.18-3.43-8.72l-19-18.41s-9.36-7.18-6.87-25.9l4.66-49.46a44.57,44.57,0,0,1,1.05-6.18c.91-3.76,2-10.37-1.34-11.59C468.88,489.46,457.13,505.87,429.57,492.27Z" fill="#E38B0E"/><path d="M319.69,287.26,336,269.36s2-12.33-23.09-18.57l-.47,30.73S318.53,283.64,319.69,287.26Z" fill="#f9b499"/><path d="M300.88,224.12H313a0,0,0,0,1,0,0v408.1a2.79,2.79,0,0,1-2.79,2.79h-6.6a2.79,2.79,0,0,1-2.79-2.79V224.12a0,0,0,0,1,0,0Z" fill="#2f2e41"/><path d="M300.88,224.12H313a0,0,0,0,1,0,0v408.1a2.79,2.79,0,0,1-2.79,2.79h-6.6a2.79,2.79,0,0,1-2.79-2.79V224.12a0,0,0,0,1,0,0Z" opacity="0.2"/><path d="M289.14,188.65a1.44,1.44,0,0,1,1.54,1.39c.06,2.16.73,5.91,4.74,5.69,0,0,3.43,0,3.43,5.61,0,0-1.56,22.15,2,22.78h12.17s1.71,0,1.4-3.12l.31-20.28s.31-5.3,4.06-5a5.5,5.5,0,0,0,2.95-5.36,1.47,1.47,0,0,1,1.45-1.51H335s6.24,0,7.18-10.6l6-77.8a2.17,2.17,0,0,0-2.47-2.31h0a2.16,2.16,0,0,0-1.85,1.94l-7,76.92s-1.25,7.49-5.3,7.49l-12-.28a1.75,1.75,0,0,1-1.72-1.75V101.84a1.72,1.72,0,0,0-1.88-1.72h0a1.72,1.72,0,0,0-1.57,1.69l-1.18,80.51a3.4,3.4,0,0,1-3.47,3.36l-11.42-.19a3.42,3.42,0,0,1-3.36-3.31l-2.64-81.52a2,2,0,0,0-2-2h0a2,2,0,0,0-2,2.09l2.6,79.11a4.14,4.14,0,0,1-4.14,4.28H274.24a4.15,4.15,0,0,1-4.13-3.76l-7.22-78.9a2.24,2.24,0,0,0-2.7-2h0a2.24,2.24,0,0,0-1.76,2.35l5.69,78.27a10.11,10.11,0,0,0,10.69,9.35Z" fill="#E38B0E"/><path d="M409.13,115.57a78.85,78.85,0,0,1,.21,10.66s7.13,16.34,28.13,8.41Z" fill="#f7a48b"/><path d="M408.7,94.93a3.56,3.56,0,0,0-4.59-.1l.19-.5s-1.23-2.71-.62-9a45.46,45.46,0,0,1,9.19-1.38S410.74,86.64,408.7,94.93Z" fill="#2f2e41"/><path d="M455.11,106.43s5.56-6.65,5.77-12.23l-7.81-3.31A46.45,46.45,0,0,1,455.11,106.43Z" fill="#2f2e41"/><path d="M455.16,104.32c0,12.58-5,23.54-12.47,29.11a18.65,18.65,0,0,1-11.25,4c-10.15,0-18.8-8.89-22.18-21.38a44.45,44.45,0,0,1-1.53-11.69c0-18.28,10.61-33.08,23.71-33.08S455.16,86,455.16,104.32Z" fill="#f9b499"/><path d="M408.91,76.12s6.65-25.14,19.22-24.4l15.53-.37s11.46.37,13.68,12.94l3.75,21.18S422.59,76.12,408.91,76.12Z" fill="#E38B0E"/><path d="M408.91,76.12l1-3.13s35.1-5.38,50.82,10.34l.36,2.14S422,77.57,408.91,76.12Z" fill="#2f2e41"/><path d="M402.06,98.38S382.93,85.09,388.8,78a5.53,5.53,0,0,1,3.34-1.82c3.49-.6,13-1.54,30.26,1.58,0,0,21.83,3.12,50.23,10.29,0,0,7.88,1,5.25,6.25a7,7,0,0,1-3.14,3.06c-3.25,1.66-10.7,5-16.15,3.8,0,0,2.18-4.06,2.18-6.87,0,0-28.64-15.09-56.54-9.16a.71.71,0,0,0-.57.68c-.06,1.7-.12,6.78.92,9.1Z" fill="#E38B0E"/><ellipse cx="406.33" cy="102.13" rx="5.15" ry="8.11" fill="#f9b499"/><path d="M380.59,167s9.67-10.29,16.54-4.67c0,0,18.39,18.08,23.7,27.76L414,173.88s-6.6-9.83-10-27.14c0,0-.52-.67.61-2.83,0,0,2.85-3.72,4.1-12,0,0-8-.32-13.88,11.23,0,0-7.8,13.26-12.17,17C382.62,160.16,379,164.37,380.59,167Z" fill="#E38B0E"/><path d="M380.59,167s9.67-10.29,16.54-4.67c0,0,18.39,18.08,23.7,27.76L414,173.88s-6.6-9.83-10-27.14c0,0-.52-.67.61-2.83,0,0,2.85-3.72,4.1-12,0,0-8-.32-13.88,11.23,0,0-7.8,13.26-12.17,17C382.62,160.16,379,164.37,380.59,167Z" fill="#fff" opacity="0.2"/><path d="M421.07,189.32a.14.14,0,0,0,.25.13c3.75-4.91,27.88-35.81,36.64-28.2,0,0,3.12,4.06,5,3.12,0,0,2.34-3.27-4.05-11.23,0,0-12.64-18.56-15.91-17.47l.46,11.08s-.31,6.53-2,7.47a75.53,75.53,0,0,0-14,20.6A100.79,100.79,0,0,0,421.07,189.32Z" fill="#E38B0E"/><path d="M421.07,189.32a.14.14,0,0,0,.25.13c3.75-4.91,27.88-35.81,36.64-28.2,0,0,3.12,4.06,5,3.12,0,0,2.34-3.27-4.05-11.23,0,0-12.64-18.56-15.91-17.47l.46,11.08s-.31,6.53-2,7.47a75.53,75.53,0,0,0-14,20.6A100.79,100.79,0,0,0,421.07,189.32Z" fill="#fff" opacity="0.2"/><path d="M456.63,214.76a2.68,2.68,0,1,1,2.11-3.16A2.68,2.68,0,0,1,456.63,214.76Z" fill="none" stroke="#fff" stroke-miterlimit="10"/><path d="M385.16,215.54a4,4,0,0,1-4.22-1.9,3.88,3.88,0,0,1-.47-1.23,4,4,0,1,1,4.69,3.13Z" fill="none" stroke="#fff" stroke-miterlimit="10"/><path d="M521,205.92s3.55-1.22,5,.88c0,0,9.6,8,4.92,10.06,0,0-11,4.11-15.53,8.15a3.41,3.41,0,0,1-3.6.56c-3.47-1.47-9.47-4.56-7.78-7.77C504,217.8,509,209.72,521,205.92Z" fill="#2f2e41"/><path d="M313,292.89l0-11.16a11.86,11.86,0,0,1,4.89,2.68,7.73,7.73,0,0,1,2.47,5.8l-.07,8.63S315.15,299.68,313,292.89Z" fill="#f9b499"/><path d="M300.86,281s-9.81-1-9.81,8.17c0,0-2.81,8.65-1.17,11.7,0,0,3.28,13.1,9.83,15.44,0,0,8.89,2.34,9.59-4.68,0,0,11.7-3.51,4.68-8.89,0,0,1.17-4.68-3.74-4.92,0,0,3.27-4.49-3.94-5.27a4.21,4.21,0,0,1-2.82-1.51l-2.08-2.57a3.43,3.43,0,0,1-.48-2.11Z" fill="#f9b499"/><path d="M293.62,293.38l5.83,4a5.69,5.69,0,0,0,3.67,1l7.12-.55" fill="none" stroke="#f7a48b" stroke-miterlimit="10"/><path d="M295.26,302.74s10.06,6.78,18.72,0" fill="none" stroke="#f7a48b" stroke-miterlimit="10"/><path d="M298.3,310.46a51,51,0,0,0,11,1.17" fill="none" stroke="#f7a48b" stroke-miterlimit="10"/><path d="M452.9,227.37c0,6.37-9.24,17.71-15.6,17.71s-7.45-11.34-7.45-17.71a11.53,11.53,0,0,1,23,0Z" fill="#E38B0E"/><path d="M452.9,227.37c0,6.37-9.24,17.71-15.6,17.71s-7.45-11.34-7.45-17.71a11.53,11.53,0,0,1,23,0Z" fill="#fafafa" opacity="0.5" style="isolation:isolate"/><path d="M447.18,213.87a6.08,6.08,0,0,0-3.14,4.46,6.1,6.1,0,0,0,8.1-3,6,6,0,0,0,.49-1.66A6.08,6.08,0,0,0,447.18,213.87Z" fill="#E38B0E"/><path d="M447.18,213.87a6.08,6.08,0,0,0-3.14,4.46,6.1,6.1,0,0,0,8.1-3,6,6,0,0,0,.49-1.66A6.08,6.08,0,0,0,447.18,213.87Z" fill="#fafafa" opacity="0.2" style="isolation:isolate"/><path d="M441.27,216.71a3.59,3.59,0,0,0,2.8,1.59,3.6,3.6,0,0,0-3.21-4.81A3.61,3.61,0,0,0,441.27,216.71Z" fill="#E38B0E"/><path d="M441.27,216.71a3.59,3.59,0,0,0,2.8,1.59,3.6,3.6,0,0,0-3.21-4.81A3.61,3.61,0,0,0,441.27,216.71Z" fill="#fafafa" opacity="0.2" style="isolation:isolate"/><path d="M497.53,223c2.08,6-3,19.75-9,21.82s-10.72-8.31-12.8-14.33a11.52,11.52,0,0,1,21.67-7.83,3.4,3.4,0,0,1,.12.34Z" fill="#E38B0E"/><path d="M497.53,223c2.08,6-3,19.75-9,21.82s-10.72-8.31-12.8-14.33a11.52,11.52,0,0,1,21.67-7.83,3.4,3.4,0,0,1,.12.34Z" fill="#fafafa" opacity="0.4" style="isolation:isolate"/><path d="M487.73,212.12a6.1,6.1,0,0,0-1.5,5.23,6.09,6.09,0,0,0,6.61-7.18A6.1,6.1,0,0,0,487.73,212.12Z" fill="#E38B0E"/><path d="M487.73,212.12a6.1,6.1,0,0,0-1.5,5.23,6.09,6.09,0,0,0,6.61-7.18A6.1,6.1,0,0,0,487.73,212.12Z" fill="#fafafa" opacity="0.2" style="isolation:isolate"/><path d="M483.06,216.71a1.81,1.81,0,1,0,0-3.61,1.79,1.79,0,0,0-1.45.7A3.62,3.62,0,0,0,483.06,216.71Z" fill="#E38B0E"/><path d="M483.06,216.71a1.81,1.81,0,1,0,0-3.61,1.79,1.79,0,0,0-1.45.7A3.62,3.62,0,0,0,483.06,216.71Z" fill="#fafafa" opacity="0.2" style="isolation:isolate"/><path d="M452.48,224.88c-.67,7.45,8.93,21.67,16.38,22.34s9.89-12.48,10.55-19.92a13.53,13.53,0,0,0-26.87-3.12C452.51,224.41,452.49,224.65,452.48,224.88Z" fill="#E38B0E"/><path d="M452.48,224.88c-.67,7.45,8.93,21.67,16.38,22.34s9.89-12.48,10.55-19.92a13.53,13.53,0,0,0-26.87-3.12C452.51,224.41,452.49,224.65,452.48,224.88Z" fill="#fafafa" opacity="0.5" style="isolation:isolate"/><path d="M460.58,209.7a7.12,7.12,0,0,1,3.19,5.54,7.13,7.13,0,0,1-9.14-4.27,7.33,7.33,0,0,1-.41-2A7.11,7.11,0,0,1,460.58,209.7Z" fill="#E38B0E"/><path d="M460.58,209.7a7.12,7.12,0,0,1,3.19,5.54,7.13,7.13,0,0,1-9.14-4.27,7.33,7.33,0,0,1-.41-2A7.11,7.11,0,0,1,460.58,209.7Z" fill="#fafafa" opacity="0.2" style="isolation:isolate"/><path d="M467.19,213.66a4.29,4.29,0,0,1-3.45,1.58,4.23,4.23,0,0,1,3.09-5.11A4.53,4.53,0,0,1,468,210,4.25,4.25,0,0,1,467.19,213.66Z" fill="#E38B0E"/><path d="M467.19,213.66a4.29,4.29,0,0,1-3.45,1.58,4.23,4.23,0,0,1,3.09-5.11A4.53,4.53,0,0,1,468,210,4.25,4.25,0,0,1,467.19,213.66Z" fill="#fafafa" opacity="0.2" style="isolation:isolate"/><path d="M497.06,219.63c-2.35,7.09,3.74,23.14,10.82,25.49s12.49-9.89,14.85-17a13.53,13.53,0,1,0-25.43-9.24q-.14.36-.24.72Z" fill="#E38B0E"/><path d="M497.06,219.63c-2.35,7.09,3.74,23.14,10.82,25.49s12.49-9.89,14.85-17a13.53,13.53,0,1,0-25.43-9.24q-.14.36-.24.72Z" fill="#fafafa" opacity="0.5" style="isolation:isolate"/><path d="M509.07,206.7a7.11,7.11,0,0,1,1.83,6.14,7.15,7.15,0,0,1-7.91-6.29,7.42,7.42,0,0,1,.06-2.05A7.21,7.21,0,0,1,509.07,206.7Z" fill="#E38B0E"/><path d="M509.07,206.7a7.11,7.11,0,0,1,1.83,6.14,7.15,7.15,0,0,1-7.91-6.29,7.42,7.42,0,0,1,.06-2.05A7.21,7.21,0,0,1,509.07,206.7Z" fill="#fafafa" opacity="0.2" style="isolation:isolate"/><path d="M513.9,212.08a2.12,2.12,0,1,1,1.63-3.43A4.29,4.29,0,0,1,513.9,212.08Z" fill="#E38B0E"/><path d="M513.9,212.08a2.12,2.12,0,1,1,1.63-3.43A4.29,4.29,0,0,1,513.9,212.08Z" fill="#fafafa" opacity="0.2" style="isolation:isolate"/><polygon points="505.73 252.42 545.25 252.42 533.78 225.66 494.27 225.66 505.73 252.42" fill="#E38B0E"/><rect x="462.28" y="225.66" width="71.47" height="59.1" fill="#E38B0E"/><rect x="462.28" y="225.66" width="71.47" height="59.1" fill="#fafafa" opacity="0.3" style="isolation:isolate"/><rect x="424.51" y="225.66" width="55.39" height="59.1" fill="#E38B0E"/><rect x="424.51" y="225.66" width="55.39" height="59.1" fill="#e0e0e0" opacity="0.1" style="isolation:isolate"/><polygon points="424.51 255.21 470.31 255.21 479.88 225.66 424.51 225.66 424.51 255.21" opacity="0.35" style="isolation:isolate"/><polygon points="468.43 252.42 413.05 252.42 424.51 225.66 479.88 225.66 468.43 252.42" fill="#E38B0E"/><path d="M540.08,252.39c6.25,11.61,13.13,28.22,5.37,34.22,0,0-12.19,11.23-33.48,14,0,0-4.45-.24-1.64-3.51,0,0-4.45-2.58,4.91-7,0,0-4.21-2.34,1.87-5.39h16.56v-6.43s-12.7,1.77-10.8-2.4a3.59,3.59,0,0,1,2.64-2c3.07-.6,5.9-1.36,8.1-.81,0,0-.14-7.93.15-20.72Z" fill="#f9b499"/><line x1="532.86" y1="285.24" x2="515.08" y2="290.15" fill="none" stroke="#f7a48b" stroke-miterlimit="10"/><line x1="531.6" y1="292.26" x2="510.31" y2="297.17" fill="none" stroke="#f7a48b" stroke-miterlimit="10"/></svg>